<?xml version="1.0" encoding="UTF-8"?>
<svg id="Layer_1" data-name="Layer 1" xmlns="http://www.w3.org/2000/svg" viewBox="0 0 549.71 553.39">
  <defs>
    <style>
      .cls-1 {
        fill: #31b694;
      }

      .cls-1, .cls-2, .cls-3, .cls-4, .cls-5, .cls-6, .cls-7, .cls-8 {
        stroke-width: 0px;
      }

      .cls-2 {
        fill: #05967d;
      }

      .cls-3 {
        fill: #6fd3ad;
      }

      .cls-4 {
        fill: #3f6a7a;
      }

      .cls-5 {
        fill: #588392;
      }

      .cls-6 {
        fill: #dcf2e1;
      }

      .cls-7 {
        fill: #f8fcef;
      }

      .cls-8 {
        fill: #103e53;
      }
    </style>
  </defs>
  <path class="cls-7" d="m10.36,339.36c.92-5.1-1.57-9.41-3.46-13.76-6.57-15.16-7.97-30.87-5.66-47.08.3-2.13.14-4.32.2-6.48,1.69.19,1.98,1.63,2.41,2.84,6.53,18.55,20.99,28.58,38.32,35.35,13.92,5.43,28.51,7.67,43.37,8.79,49.78,3.75,96.52-8.2,141.58-27.81,31.49-13.7,60.9-31.42,89.74-50,33.36-21.51,67.9-40.8,104.86-55.43,23.07-9.13,46.8-15.35,71.99-13.85,16.9,1.01,31.39,6.86,42.42,20.12,2.59,8.08,4.67,16.37,7.94,24.16,2.12,5.05,2.74,10.17,3.05,15.32.46,7.59.1,15.23.08,22.84-2.45-.21-2.5-2.4-3.14-3.98-7.83-19.3-23.27-28.68-42.85-31.64-21.33-3.22-41.62,2.3-61.54,9.39-35.54,12.66-67.84,31.59-99.6,51.54-18.61,11.69-37.15,23.48-56.21,34.46-11.69,6.73-23.66,12.97-35.88,18.44-33.51,14.99-68.01,27.24-104.76,31.69-25.03,3.03-50.04,3.28-75.15-.03-17.01-2.25-32.55-7.76-46.94-16.86-3.79-2.39-6.75-5.91-10.77-8.01Z"/>
  <path class="cls-6" d="m64.88,448.46c-2.38-4.75-2.95-10.08-5.47-14.91-4.94-9.45-10.3-18.89-11.14-29.92,1.84-1.47,3.12.17,4.36.98,19.06,12.37,40.52,17.36,62.62,20.25,10.88,1.42,21.82,2.13,32.82,2.11,27.98-.05,55.28-4.15,82.2-11.82,25.1-7.15,48.9-17.25,72.2-28.86,23.34-11.63,45.45-25.28,65.5-41.78,21.94-18.06,42.97-37.31,58.77-61.4.99-1.51,1.85-3.19,3.56-4.11,2.5.08,3.31,2.04,3.99,3.88,5.2,14.07,8.84,28.49,9.66,43.53.24,4.45,1.32,8.9.15,13.36-6.68,9.18-15.77,15.78-25.05,21.86-5.35,3.51-7.95,7.66-9.38,13.7-7.08,29.78-21.82,55.73-41.36,78.94-14.62,17.35-31.2,32.58-49.95,45.69-19.89,13.89-41.2,24.39-64.05,32.06-2.7.91-4.98,2.71-7.77,3.4-7.19,1.28-14.31,2.96-21.57,3.81-2.47.29-4.94.82-7.3-.46-1.05-4.28.21-9.4-4.29-12.44-1.6-1.08-3.4-1.87-5.11-2.79,1.65-2.37,4.37-2.18,6.73-2.6,28.53-5.09,55.1-15.47,79.78-30.47,21.88-13.3,41.65-29.46,58.42-48.8,11.43-13.18,21.5-27.57,28.44-43.83.91-2.14,1.97-4.26,2.12-6.63.16-2.43-.71-3.94-3.51-3.25-8.61,5.14-15.98,11.98-24.44,17.34-16.48,10.43-33.59,19.65-51.17,28.1-15.34,7.37-31.1,13.66-47.16,19.14-23.37,7.99-47.35,13.83-72,15.67-14.56,1.09-29.25.55-43.9-.18-10.71-.54-21.13-2.47-31.64-4.02-13.96-2.05-26.96-7.29-39.89-12.67-1.68-1.02-3.58-1.67-5.16-2.88Z"/>
  <path class="cls-6" d="m346.15,20.11c2.55,7.26,9.62,9.3,15.18,13.07,1.19.81,2.65,1.23,3.99,1.83-1.58,2.19-4.13,2-6.32,2.28-19.66,2.55-38.02,9.18-55.85,17.51-21.32,9.95-41.41,21.87-59.11,37.53-4.1,3.63-8.29,7.16-12.32,10.86-.65.7-1.25,1.44-1.85,2.19-.31.37-.65.69-1.02,1-15.25,14.95-28.67,31.35-39.56,49.76-4.64,7.85-9.65,15.51-13.15,24-2.59,4.86-4.54,10.01-6.72,15.05-.67,1.53-1.09,3.15-1.28,4.82-.15,1.35-.16,2.79,1.21,3.55,1.49.83,2.54-.31,3.46-1.22,6.5-6.49,13.89-11.93,20.96-17.73,15.58-12.79,31.92-24.5,49.28-34.88,13.44-8.03,27.08-15.62,40.92-22.91,35.02-18.44,71.74-31.99,110.93-38.2,22.31-3.53,44.71-4.39,67.01.58,6.36,1.42,12.59,3.2,18.13,6.79.38,5.72,1.96,10.79,5.56,15.58,5.55,7.38,8.65,16.12,11.59,24.83-2.14,1.31-3.85-.15-5.57-.97-13.75-6.57-28.32-9.49-43.47-9.8-41.61-.84-80.56,10.12-118.41,26.33-47.55,20.37-89.84,49.11-129.82,81.44-17.2,13.91-33.47,28.93-48.35,45.39-2.65,2.05-5.97,1.7-8.97,2.53-1.79.28-3.6.33-5.38.71-.81.04-1.56-.12-2.21-.63-2-5.84-1.28-11.91-.78-17.78,2.72-32.35,11.32-63.11,25.21-92.48,14.9-31.51,34.45-59.75,59.64-83.75,35.21-33.54,76.49-56.35,124.12-67.18.98-.22,1.95-.45,2.94-.06Z"/>
  <path class="cls-2" d="m135.66,281.04c.42-.02.85-.04,1.27-.06,1.73-.62,3.72.47,5.36-.8,2.8-1.26,6.18-.35,8.77-2.35,7.76-2.42,15.67-4.33,23.53-6.4,14.05-3.7,27.52-8.88,40.79-14.68,25.54-11.16,49.7-24.85,72.97-40.13,33.62-22.07,68.68-41.42,106.13-56.22,20.04-7.92,40.64-14.16,62.17-16.05,18.18-1.59,36.28-1.02,53.03,8.1,5.24,2.85,9.63,6.46,13.48,10.89,7.01,8.35,13.25,17.05,12.95,28.7-1.84.4-2.69-1.04-3.67-2.09-10.52-11.24-23.99-15.64-38.85-16.73-17.35-1.28-34.14,1.84-50.66,6.81-29.95,9.02-57.82,22.72-84.98,37.97-10.4,5.84-20.81,11.69-30.87,18.08-18.05,11.48-36.05,23.05-54.58,33.75-45.1,26.04-92.87,44.66-144.99,50.09-29.34,3.06-58.59,1.91-86.62-8.74-16.34-6.21-29.97-15.9-37.15-32.7-.9-2.1-1.54-4.3-2.3-6.45-2.78-14.77-1.19-29.33,2.02-43.82,3.28-.8,2.82,1.91,3.19,3.58,2.66,11.75,7.77,22.1,16.81,30.32,7.12,6.47,15.49,10.63,24.52,13.65,14.14,1.96,28.16,4.73,42.41,5.89,1.84.15,3.65-.08,5.48-.16,9.45.79,18.86.05,28.26-.74,3.86-.51,7.74-1.9,11.53.29Z"/>
  <path class="cls-2" d="m10.36,339.36c2.09-1,3.4.28,4.81,1.54,9.47,8.51,20.63,13.84,32.67,17.68,15.2,4.85,30.92,6.01,46.65,6.61,50.69,1.91,98.67-9.65,144.7-30.2,12.36-5.52,25.07-10.54,36.67-17.39,21.9-12.93,43.52-26.36,65.01-40,35.17-22.33,71.26-43,111.47-55.16,13.61-4.12,27.62-6.75,41.87-5.82,25.24,1.65,44.28,12.58,52.98,37.74,2.57,13.42,3.04,26.96,2.05,40.55-.42,5.74-1.29,11.45-1.96,17.18-2.14-3.21-1.79-6.99-2.34-10.54-2.94-19.07-11.04-34.93-28.58-44.45-7.84-4.25-16.46-6.25-25.54-4.83-12.99.5-25.48,3.52-37.81,7.34-9.87,1.57-18.59,6.25-27.55,10.28-4.57,1-8.45,3.54-12.5,5.69-19.52,11.11-38.5,23.13-57.21,35.5-15.42,10.19-31.02,20.05-46.82,29.62-6.14,3.72-12.48,7.01-18.91,10.14-9.27,4.53-18.61,8.9-27.31,14.52-20.86,7.83-41.38,16.68-62.78,22.88-17.23,5-34.87,8.76-52.83,10.3-23.76,2.04-47.48,2.03-71.07-2.1-18.14-3.18-34.37-10.75-49.51-21-3.15-2.14-4.63-5.61-7.26-8.13-3.49-6.15-6.9-12.33-8.87-19.2-.85-2.97-1.21-5.83-.03-8.75Z"/>
  <path class="cls-8" d="m491.1,251.35c5.26-2.56,10.5-.45,15.44.72,15.19,3.59,25.5,13.25,32.73,26.96,5.52,10.47,7.42,21.55,8.01,33.07-2.69,25.02-8.87,49.16-18.87,72.24-15.26,35.21-36.93,66.09-64.24,92.98-11.66,11.48-24.68,21.31-38.54,30.05-11.47,7.23-23.17,14.09-35.51,19.59-13.69,6.11-27.65,11.71-42.23,15.58-3.5.93-6.85,2.37-10.58,1.61-.21-2.02,1.52-2.4,2.75-3.04,27.15-14.2,47.42-35.57,63.77-61.04,8.87-13.19,15.78-27.32,21.42-42.19,4.62-12.19,8.84-24.45,11.21-37.25,3.35-18.15,6.55-36.33,6.42-54.9-.01-1.84,0-3.66.46-5.46.44-9.34-.73-18.62-2.35-27.72-1.71-9.61-3.89-19.23-7.65-28.35-.75-1.81-1.15-3.85-3.03-4.98-1.94-3.19-4.57-6.03-5.1-9.94,8.41-4.75,16.8-9.58,26.84-9.97,2.29.49,2.96,2.51,3.86,4.24,10.04,19.3,14.18,40.18,16.83,61.53,1.4,11.25.71,22.49.89,33.73-2.63,28.29-7.99,55.97-18.35,82.54-.3.78-.62,1.55-.88,2.34-2.53,7.61-1.64,7.95,6.14,7.77,7.1-.17,11.17-3.12,14.83-8.78,15.39-23.79,25.75-49.51,31-77.33.34-1.81.53-3.62.51-5.46,2.23-9.93,2.46-20.11,2.64-30.14.25-13.9-1.22-27.79-4.46-41.43-2.7-11.37-6.04-22.43-12.49-32.33-.89-1.36-1.84-2.81-1.45-4.62Z"/>
  <path class="cls-3" d="m523.16,163.34c-3.4-.93-5.08-4.14-7.84-5.93-11.12-7.2-23.28-11.28-36.5-12.1-25.56-1.6-49.88,4.28-73.7,12.66-26.92,9.48-52.27,22.3-77.22,36.11-28.76,15.93-55.11,35.82-84.51,50.68-17.2,8.69-34.6,16.79-52.85,23.1-12.52,4.33-25.39,7.22-38.15,10.58-.37.1-.89-.39-1.34-.6,6.72-8.73,14.85-16.12,22.88-23.55,24.19-22.4,50.2-42.52,77.62-60.82,35.84-23.92,73.71-43.81,114.95-56.74,19.19-6.01,38.79-10.1,58.93-11.69,20.24-1.59,40.16-1.19,59.43,6.04,4.18,1.57,8.22,3.52,12.33,5.3,9.54,6.59,17.99,14.31,24.54,23.96.63.93,1.63,1.69,1.43,3.02Z"/>
  <path class="cls-3" d="m216.27,8.09c26.21-6.3,52.8-9.48,79.7-7.5,13.63,1,27.17,3.71,40.31,7.88-1.51,3.32-4.6,2.37-6.9,2-14.71-2.34-28.89.12-42.76,4.65-25.06,8.18-48.07,20.15-68.22,37.42-24.06,20.62-41.52,46.15-55.6,74.18-13.85,27.58-22.62,56.88-27.58,87.24-1.87,11.43-2.06,23.16-2.47,34.77-.16,4.48-1.13,7.99-5.41,9.59-4.15,1.54-4.81,6.12-8.02,8.37-2.46-.59-2.63-2.8-3.16-4.64-6.43-22.25-9.26-44.98-8.09-68.09,1.92-37.69,10.08-73.87,28.56-107.1,16.84-30.27,38.74-56.05,68.71-74.31,3.48-2.12,7.55-2.36,10.94-4.46Z"/>
  <path class="cls-1" d="m425.2,269.25c2.31,3,4.88,5.87,5.1,9.94-6.83,11.87-15.03,22.87-24.72,32.39-11.23,11.04-22.23,22.4-34.58,32.27-11.68,9.34-24.22,17.39-36.7,25.6-24.27,15.96-50.29,28.22-77.31,38.43-23.79,8.99-48.31,15.51-73.66,18.4-31.8,3.63-63.4,2.85-94.64-4.93-14.5-3.61-28.09-9.23-40.43-17.73-12.1-10.16-22.45-21.73-29.01-36.32,4.08.93,5.27,5.13,8.33,7.38,10.88,8.01,23.04,13.35,35.69,17.35,25.14,7.96,51.24,7.03,77.07,5.87,19.33-.87,38.44-4.98,57.03-10.41,17.6-5.14,34.93-11.34,51.77-18.72,4.55-1.99,9.24-3.49,14.08-4.57,2.47-.23,4.62.25,6.03,2.57,1.14,1.87,2.91,2.26,4.78,1.43,5.03-2.24,10.52-3.7,15.68-4.65,7.32-1.36,14.13-4.26,21.37-5.53,3.34-.58,6.45-1.38,9.37-3.1,9.37-5.52,18.72-11.35,28.73-15.32,9.52-3.78,18.11-9.53,28.16-12.23,4.67-1.26,9.02-5.25,11.58-9.03,3.9-5.77,9.22-10.79,11.11-18.01,1.16-4.43,3.25-8.65,6.38-12.28,3.34-3.87,4.1-8.97,5.71-13.65,4.45-1.49,7.86-5.61,13.08-5.16Z"/>
  <path class="cls-5" d="m74.3,89.28c22.1-22.78,46.44-42.59,75.14-56.6.9,2.89-1.48,4.19-2.95,5.83-16.25,18.18-31.53,37.03-41.58,59.55-11.21,25.12-18.37,51.21-21.59,78.64-2.58,21.9-1.11,43.47,1.36,65.12.72,6.27,2.53,12.39,3.8,18.59.37,1.78,1.07,3.54.39,5.39-1.43,1.78-3.26,1.54-4.9.61-5.83-3.32-11.87-5.38-18.7-4.19-1.3.23-2.59-.43-3.87-.78-1.6-.43-3.36-2.91-4.8.29-.16.36-1.01.53-1.38.31-4.82-2.81-10.49-.36-15.41-2.5-1.86-1.7-2.13-4.09-2.67-6.33-4.98-20.26-5.25-40.75-3.14-61.4,2.31-22.51,7.88-44.11,17.71-64.5,5.92-12.27,11.9-24.56,20.82-35.08.74-.88,1.62-1.7,1.76-2.95Z"/>
  <path class="cls-8" d="m380.33,386.47c4.75.07,6.05,1.67,4.55,6.56-2.71,8.82-7.18,16.9-12.25,24.48-34.67,51.81-82.56,85.26-142.54,101.59-7.15,1.95-14.55,2.98-21.84,4.44-13.75,1.5-27.52,1.6-41.14-.93-23.08-4.27-43.16-15.14-61.81-28.96-11.78-8.74-22.11-19-31.39-30.34,2.09-1.84,3.74-.41,5.26.85,12.64,10.43,27.53,16.29,43.14,20.03,18.62,4.47,37.5,6.88,56.86,6.48,22.59-.46,44.16-4.95,65.54-11.73,31.72-10.05,60.68-25.55,88.59-43.33,15.18-9.67,27.91-22.09,40.11-35.11,3.66-3.9,5.98-8.68,6.91-14.04Z"/>
  <path class="cls-8" d="m480.04,95.96c-.65.05-1.43.36-1.94.12-24.28-11.4-49.92-10.45-75.47-7.38-37.86,4.55-73.51,16.78-107.51,33.82-14.81,7.42-29.52,15.04-43.81,23.45-28.15,16.56-54.03,36.16-78.42,57.8-1.16,1.03-2.02,3.73-4.34,1.87-1.97-1.58-2.59-3.79-1.83-6.3,2.14-7.01,5.21-13.6,8.71-20.01,20.39-21.07,42.37-40.26,66.96-56.35,35.36-24.06,73.01-43.17,114.6-54.09,18.46-4.85,37.11-8.19,56.19-7.82,16.41.32,32.5,2.82,47.09,11.21,6.82,4.99,12.55,11.14,18.3,17.28,1.71,1.83,2.21,3.99,1.48,6.41Z"/>
  <path class="cls-8" d="m88.64,266.33c-4.24-16.74-7.34-33.58-7.7-50.99-.19-9.25-1.28-18.66-.32-27.74,1.67-15.94,3.79-31.88,7.88-47.51,9.51-36.38,26-68.85,51.78-96.48,3.22-3.45,7-6.55,9.16-10.94,17.89-10.48,37.02-17.83,57.11-22.76,3.2-.78,6.48-1.23,9.72-1.83-10.6,5.55-20.78,11.78-29.9,19.57-35.19,30.06-57.64,67.9-69.06,112.59-8.03,31.45-10.08,63.26-5.82,95.38,1.39,10.47,4.22,20.77,7.58,30.85,3.3,4.72,5.32,9.86,5.07,15.72-7.67.8-15.36,1.31-23.08,1.12-1.96-.05-3.97.22-5.72-.98-4.3-4.47-5.96-10.05-6.69-16.01Z"/>
  <path class="cls-1" d="m124.14,282.2c-1.69-5.24-3.38-10.48-5.07-15.72,1.31-4.92,4.7-8.2,9.04-10.29,2.78-1.34,3.14-3.13,3.24-5.83.8-23.05,3.12-45.82,9.32-68.24,8.84-31.96,21.79-61.88,40.38-89.35,16.03-23.7,35.69-43.85,60.22-58.61,18.93-11.39,39.09-20.5,61.03-24.5,8.26-1.5,16.75-2.25,25.27-.62,2.78.53,5.92,1.22,8.71-.58,2.31,1.09,4.6,2.22,6.93,3.26,3.98,1.77,4.86,4.57,2.94,8.38-6.16,3.1-13.04,3.86-19.55,5.82-47.94,14.45-88.35,40.7-121.47,78.06-30.68,34.6-51.61,74.46-62.98,119.35-4.23,16.7-6.43,33.63-7.1,50.79-.09,2.32-.37,4.67.59,6.91-3.84.39-7.68.78-11.52,1.16Z"/>
  <path class="cls-4" d="m380.33,386.47c2.49,7.09-2.93,11.28-6.52,15.48-16.06,18.73-35.75,33.05-56.92,45.51-24.11,14.19-49.29,26.01-76.02,34.26-15.78,4.87-31.88,8.28-48.49,9.65-28.1,2.33-55.46-.78-82.15-9.46-11.69-3.8-22.93-8.92-32.34-17.19-1.24-1.09-2.33-1.79-3.96-1.4-.22-.25-.45-.51-.67-.76-1.26-3.43-4.55-5.53-5.85-8.93-.89-2.35-1.31-4.44,2.49-3.44,1.66-.6,2.89.58,4.17,1.17,14.18,6.52,29.17,10.03,44.49,12.74,21.92,3.88,44.06,4.02,66.02,2.78,21.37-1.2,42.37-6.14,62.92-12.55,24.84-7.75,48.71-17.75,71.81-29.68,20.41-10.54,40.18-22.06,57.95-36.76.84-.7,2.05-.95,3.08-1.41Z"/>
  <path class="cls-5" d="m460.26,72.28c-6.27-.98-11.77-4.29-17.87-5.82-14.31-3.58-28.71-4.49-43.45-3.39-34.35,2.57-66.22,13.43-97.28,27.5-11.6,5.26-22.62,11.47-33.57,17.97-8.68,5.15-17.09,10.74-25.8,15.82-.65-.12-1.39-.17-1.85-.62-5.41-5.23-8.18-12.09-11.38-18.68l-.02.04c.91-.28,1.18-.98,1.2-1.85,12.68-12.58,26.52-23.71,41.73-33.1,24.75-15.28,50.9-27.21,79.57-33.01,4.55-.92,9.19-1.43,13.79-2.13,36.66-3.22,66.69,11.24,93.25,34.96.73.65,1.64,1.16,1.7,2.3Z"/>
  <path class="cls-1" d="m404.28,481.42c-4.58,8.96-11.26,16.4-17.75,23.9-11.8,13.64-25.31,25.35-41.1,34.26-2.71,1.53-5.43,3.04-8.14,4.55-2.46,3.39-6.46,3.03-9.87,3.81-25.81,5.89-51.97,6.5-78.21,4.19-9.21-.81-18.35-2.56-27.48-4.1-5.61-.95-6.9-4.15-4.09-9.27,10.08-.99,20-2.91,29.89-4.97,2.69,3.11,6.02,2.22,9.25,1.36,27.19-7.3,51.92-19.65,74-37.05,17.03-13.42,32.48-28.51,45.21-46.2,1.06-1.48,2.14-3.25,4.23-3.07,2.33.19,3.12,2.27,3.86,4.12.68,1.7,1.17,3.53.82,5.37-1.84,9.57,2.17,13.43,12.94,16.5,2.4.69,5.01.76,6.39,3.28.58,1.06.74,2.2.05,3.32Z"/>
  <path class="cls-8" d="m74.3,89.28c1.97,2.21-.62,3.29-1.43,4.39-15.62,21.47-26.32,45.15-32.92,70.86-5.5,21.43-6.77,43.17-5.42,65.05.62,10.03,2.45,20.05,5.85,29.64,3.05,5.32,7.04,10.27,6.84,16.91-2.91.9-4.95-1.15-7.29-2.16-19.35-8.41-31.17-22.8-34.65-43.77-.19-1.13-.67-1.83-1.82-1.99.11-.98.22-1.96.33-2.94.01-.71.04-1.43.37-2.08,1.16-11.95,4.89-23.28,8.85-34.48,9.32-26.37,22.45-50.77,39.27-73.13,6.88-9.14,13.85-18.23,22.02-26.31Z"/>
  <path class="cls-8" d="m69.89,450.18c-1.87.18-2.13.59-1.55,2.75.98,3.66,5.71,5.23,4.91,9.63-3.02-2.42-5.09-5.69-7.55-8.6-1.37-1.62-2.08-3.43-.82-5.48,1.88-.06,3.78-.15,5.01,1.71Z"/>
  <path class="cls-2" d="m4.16,223.19c.28.77.23,1.47-.37,2.08-.33-.78-.29-1.48.37-2.08Z"/>
  <path class="cls-3" d="m404.28,481.42c-.33-3.05-1.92-5.12-5.06-5.11-2.84.01-5.14-1.18-7.51-2.36-8.01-4-9.23-6.29-8-15.47.14-1.04-.03-1.92-.16-2.89-.32-2.4-.99-5.1-3.2-5.73-2.2-.62-2.82,2.34-3.96,3.84-14.93,19.74-32.56,36.68-52.57,51.22-13.52,9.82-28.34,17.29-43.56,23.91-8.02,3.49-16.6,5.81-25.12,7.94-2.29.57-7.29,3.44-7.61-2.98,8.56-4.51,17.91-7.02,26.84-10.59,18.95-7.59,35.75-18.75,52.06-30.72,25.75-18.9,46.12-42.74,62.75-69.8,10.27-16.71,16.28-35.22,20.96-54.17.31-1.25.05-2.62,1.49-3.46,11.67-6.84,21.69-15.8,31.69-24.8,1.96,9.77.6,19.6-.55,29.22-2.3,19.2-5.28,38.36-11.74,56.72-6.83,19.41-14.4,38.48-26.75,55.23Z"/>
  <path class="cls-4" d="m229.05,105.07c3.43,4.86,7.49,9.31,9.05,15.33.49,1.88,3.44,1.91,4.19,3.96-22.88,15.36-43.58,33.34-63.21,52.61-1.06,1.04-1.98,2.28-3.65,2.35,9.38-20.06,21.12-38.62,35.64-55.35,5.7-6.57,10.64-13.9,17.99-18.91Z"/>
  <path class="cls-1" d="m142.29,280.18c-1.56,1.76-3.49,1.04-5.36.8,1.66-1.11,3.51-.96,5.36-.8Z"/>
  <path class="cls-4" d="m230.23,103.26c1.63,1.92.14,1.84-1.19,1.85-.18-.99.47-1.44,1.19-1.85Z"/>
  <path class="cls-4" d="m47.22,276.14c-1.77-5.84-5.78-10.78-6.84-16.91,4.62,1.19,9.3-1.81,14.3,1.5,3.61,2.4.52-3.06,2.57-4.04,3.11,4.28,7.3,5.44,12.27,3.36,1.37-.57,2.53-.67,3.6.52.33.37.76.95,1.13.93,5.43-.25,9.29,4.1,14.38,4.82,2.23,5.34,4.46,10.67,6.69,16.01-6.08,2.01-12.12.11-18.01-.74-7.99-1.15-16.18-1.41-23.92-4.08-2.01-.69-4.98,2.87-6.19-1.39Z"/>
  <path class="cls-5" d="m491.1,251.35c9.95,13.27,14.03,28.79,17.08,44.68,3.37,17.57,2.9,35.28,1.91,53.01-.21,3.79-2.36,7.28-1.87,11.2-2.45,4.37-6.01,4.64-10.56,3.6-6.7-1.54-13.74-.81-20.45-2.67-1.74-.48-3.58-.59-4.98-1.91,0-8.64.68-17.35-.11-25.92-2.38-25.8-6.83-51.15-20.08-74.05.57-.57,1.07-1.51,1.74-1.66,12.34-2.7,24.36-7.32,37.32-6.28Z"/>
  <path class="cls-3" d="m412.12,274.42c.77,6.35-2.08,11.15-5.99,15.9-2.32,2.83-3.53,6.67-4.84,10.2-1.49,4.02-2.16,8.4-6.44,10.77-1.03.57-1.31,1.78-1.63,2.95-.9,3.3-2.66,6.08-5.95,7.5-2.23.96-3.79,2.7-5.35,4.41-1.88,2.08-4.25,2.52-6.82,3.34-5.54,1.78-10.64,4.91-16,7.31-4.42,1.98-8.95,3.69-13.43,5.52-.92.38-2.08.51-2.72,1.16-6.5,6.62-16.26,7.6-23.2,13.44-.85.71-2.08,1.19-3.19,1.34-6.28.83-12.21,4.71-17.82,5.01-6.36.35-11.41,3.84-17.43,4.06-1.45.05-2.95.57-4.3,1.16-3.75,1.64-7.44,3.86-9.51-2.2-.58-1.69-3.27-.44-4.28-2.07,11.52-8.5,25.23-12.94,37.47-20.09,17.46-10.21,34.8-20.61,51.47-32.12,11.27-7.78,23.33-14.41,34.68-22.08,8.21-5.55,17.18-9.81,25.27-15.52Z"/>
  <path class="cls-4" d="m472.22,359.26c5.9-.15,11.43,2.31,17.33,2.33,3.79.02,7.64-.15,11.31,1.6,3.23,1.54,4.57-2.73,7.35-2.95-.81,11.68-4.37,22.73-7.88,33.77-5.34,16.8-12.99,32.54-22.78,47.17-2.55,3.81-3.72,9-9.16,10.55-4.24,1.2-8.66.56-12.97,2.05-2.26.79-4.98-1.66-3.76-5.27,2.54-7.52,5.1-15.03,7.56-22.58,6.27-19.3,10.04-39.1,12.02-59.28.24-2.47.65-4.93.99-7.39Z"/>
</svg>