<?xml version="1.0" encoding="utf-8"?>
<!-- Generator: Adobe Illustrator 28.0.0, SVG Export Plug-In . SVG Version: 6.00 Build 0)  -->
<svg version="1.1" id="Layer_1" xmlns="http://www.w3.org/2000/svg" xmlns:xlink="http://www.w3.org/1999/xlink" x="0px" y="0px"
	 viewBox="0 0 549.7 553.4" style="enable-background:new 0 0 549.7 553.4;" xml:space="preserve">
<style type="text/css">
	.st0{fill:#FF6F61;}
	.st1{fill:#DCF2E1;}
	.st2{fill:#05967D;}
	.st3{fill:#103E53;}
	.st4{fill:#6FD3AD;}
	.st5{fill:#31B694;}
	.st6{fill:#588392;}
	.st7{fill:#3F6A7A;}
</style>
<path class="st0" d="M10.4,339.4c0.9-5.1-1.6-9.4-3.5-13.8c-6.6-15.2-8-30.9-5.7-47.1c0.3-2.1,0.1-4.3,0.2-6.5
	c1.7,0.2,2,1.6,2.4,2.8c6.5,18.5,21,28.6,38.3,35.4c13.9,5.4,28.5,7.7,43.4,8.8c49.8,3.8,96.5-8.2,141.6-27.8
	c31.5-13.7,60.9-31.4,89.7-50c33.4-21.5,67.9-40.8,104.9-55.4c23.1-9.1,46.8-15.4,72-13.9c16.9,1,31.4,6.9,42.4,20.1
	c2.6,8.1,4.7,16.4,7.9,24.2c2.1,5.1,2.7,10.2,3,15.3c0.5,7.6,0.1,15.2,0.1,22.8c-2.5-0.2-2.5-2.4-3.1-4
	c-7.8-19.3-23.3-28.7-42.9-31.6c-21.3-3.2-41.6,2.3-61.5,9.4c-35.5,12.7-67.8,31.6-99.6,51.5c-18.6,11.7-37.1,23.5-56.2,34.5
	c-11.7,6.7-23.7,13-35.9,18.4c-33.5,15-68,27.2-104.8,31.7c-25,3-50,3.3-75.2,0c-17-2.2-32.5-7.8-46.9-16.9
	C17.3,345,14.4,341.5,10.4,339.4L10.4,339.4z"/>
<path class="st1" d="M64.9,448.5c-2.4-4.8-3-10.1-5.5-14.9c-4.9-9.5-10.3-18.9-11.1-29.9c1.8-1.5,3.1,0.2,4.4,1
	c19.1,12.4,40.5,17.4,62.6,20.2c10.9,1.4,21.8,2.1,32.8,2.1c28,0,55.3-4.1,82.2-11.8c25.1-7.1,48.9-17.2,72.2-28.9
	c23.3-11.6,45.5-25.3,65.5-41.8c21.9-18.1,43-37.3,58.8-61.4c1-1.5,1.9-3.2,3.6-4.1c2.5,0.1,3.3,2,4,3.9c5.2,14.1,8.8,28.5,9.7,43.5
	c0.2,4.5,1.3,8.9,0.1,13.4c-6.7,9.2-15.8,15.8-25,21.9c-5.4,3.5-8,7.7-9.4,13.7c-7.1,29.8-21.8,55.7-41.4,78.9
	c-14.6,17.4-31.2,32.6-50,45.7c-19.9,13.9-41.2,24.4-64.1,32.1c-2.7,0.9-5,2.7-7.8,3.4c-7.2,1.3-14.3,3-21.6,3.8
	c-2.5,0.3-4.9,0.8-7.3-0.5c-1.1-4.3,0.2-9.4-4.3-12.4c-1.6-1.1-3.4-1.9-5.1-2.8c1.6-2.4,4.4-2.2,6.7-2.6
	c28.5-5.1,55.1-15.5,79.8-30.5c21.9-13.3,41.6-29.5,58.4-48.8c11.4-13.2,21.5-27.6,28.4-43.8c0.9-2.1,2-4.3,2.1-6.6
	c0.2-2.4-0.7-3.9-3.5-3.2c-8.6,5.1-16,12-24.4,17.3c-16.5,10.4-33.6,19.6-51.2,28.1c-15.3,7.4-31.1,13.7-47.2,19.1
	c-23.4,8-47.4,13.8-72,15.7c-14.6,1.1-29.2,0.5-43.9-0.2c-10.7-0.5-21.1-2.5-31.6-4c-14-2-27-7.3-39.9-12.7
	C68.4,450.3,66.5,449.7,64.9,448.5L64.9,448.5z"/>
<path class="st1" d="M346.1,20.1c2.5,7.3,9.6,9.3,15.2,13.1c1.2,0.8,2.6,1.2,4,1.8c-1.6,2.2-4.1,2-6.3,2.3
	c-19.7,2.5-38,9.2-55.9,17.5c-21.3,9.9-41.4,21.9-59.1,37.5c-4.1,3.6-8.3,7.2-12.3,10.9c-0.6,0.7-1.2,1.4-1.9,2.2
	c-0.3,0.4-0.6,0.7-1,1c-15.2,14.9-28.7,31.4-39.6,49.8c-4.6,7.9-9.6,15.5-13.1,24c-2.6,4.9-4.5,10-6.7,15.1
	c-0.7,1.5-1.1,3.1-1.3,4.8c-0.1,1.4-0.2,2.8,1.2,3.6c1.5,0.8,2.5-0.3,3.5-1.2c6.5-6.5,13.9-11.9,21-17.7
	c15.6-12.8,31.9-24.5,49.3-34.9c13.4-8,27.1-15.6,40.9-22.9c35-18.4,71.7-32,110.9-38.2c22.3-3.5,44.7-4.4,67,0.6
	c6.4,1.4,12.6,3.2,18.1,6.8c0.4,5.7,2,10.8,5.6,15.6c5.5,7.4,8.6,16.1,11.6,24.8c-2.1,1.3-3.9-0.1-5.6-1
	c-13.8-6.6-28.3-9.5-43.5-9.8c-41.6-0.8-80.6,10.1-118.4,26.3c-47.5,20.4-89.8,49.1-129.8,81.4c-17.2,13.9-33.5,28.9-48.4,45.4
	c-2.6,2-6,1.7-9,2.5c-1.8,0.3-3.6,0.3-5.4,0.7c-0.8,0-1.6-0.1-2.2-0.6c-2-5.8-1.3-11.9-0.8-17.8c2.7-32.4,11.3-63.1,25.2-92.5
	c14.9-31.5,34.4-59.8,59.6-83.8c35.2-33.5,76.5-56.3,124.1-67.2C344.2,20,345.1,19.8,346.1,20.1L346.1,20.1z"/>
<path class="st2" d="M135.7,281c0.4,0,0.9,0,1.3-0.1c1.7-0.6,3.7,0.5,5.4-0.8c2.8-1.3,6.2-0.4,8.8-2.4c7.8-2.4,15.7-4.3,23.5-6.4
	c14.1-3.7,27.5-8.9,40.8-14.7c25.5-11.2,49.7-24.9,73-40.1c33.6-22.1,68.7-41.4,106.1-56.2c20-7.9,40.6-14.2,62.2-16.1
	c18.2-1.6,36.3-1,53,8.1c5.2,2.9,9.6,6.5,13.5,10.9c7,8.4,13.2,17.1,13,28.7c-1.8,0.4-2.7-1-3.7-2.1c-10.5-11.2-24-15.6-38.9-16.7
	c-17.4-1.3-34.1,1.8-50.7,6.8c-30,9-57.8,22.7-85,38c-10.4,5.8-20.8,11.7-30.9,18.1c-18,11.5-36,23.1-54.6,33.7
	c-45.1,26-92.9,44.7-145,50.1c-29.3,3.1-58.6,1.9-86.6-8.7c-16.3-6.2-30-15.9-37.2-32.7c-0.9-2.1-1.5-4.3-2.3-6.5
	c-2.8-14.8-1.2-29.3,2-43.8c3.3-0.8,2.8,1.9,3.2,3.6c2.7,11.8,7.8,22.1,16.8,30.3c7.1,6.5,15.5,10.6,24.5,13.6
	c14.1,2,28.2,4.7,42.4,5.9c1.8,0.1,3.7-0.1,5.5-0.2c9.4,0.8,18.9,0,28.3-0.7C128,280.2,131.9,278.9,135.7,281L135.7,281z"/>
<path class="st2" d="M10.4,339.4c2.1-1,3.4,0.3,4.8,1.5c9.5,8.5,20.6,13.8,32.7,17.7c15.2,4.9,30.9,6,46.7,6.6
	c50.7,1.9,98.7-9.6,144.7-30.2c12.4-5.5,25.1-10.5,36.7-17.4c21.9-12.9,43.5-26.4,65-40c35.2-22.3,71.3-43,111.5-55.2
	c13.6-4.1,27.6-6.8,41.9-5.8c25.2,1.6,44.3,12.6,53,37.7c2.6,13.4,3,27,2,40.6c-0.4,5.7-1.3,11.5-2,17.2c-2.1-3.2-1.8-7-2.3-10.5
	c-2.9-19.1-11-34.9-28.6-44.5c-7.8-4.2-16.5-6.2-25.5-4.8c-13,0.5-25.5,3.5-37.8,7.3c-9.9,1.6-18.6,6.2-27.5,10.3
	c-4.6,1-8.5,3.5-12.5,5.7c-19.5,11.1-38.5,23.1-57.2,35.5c-15.4,10.2-31,20-46.8,29.6c-6.1,3.7-12.5,7-18.9,10.1
	c-9.3,4.5-18.6,8.9-27.3,14.5c-20.9,7.8-41.4,16.7-62.8,22.9c-17.2,5-34.9,8.8-52.8,10.3c-23.8,2-47.5,2-71.1-2.1
	c-18.1-3.2-34.4-10.8-49.5-21c-3.1-2.1-4.6-5.6-7.3-8.1c-3.5-6.1-6.9-12.3-8.9-19.2C9.5,345.1,9.2,342.3,10.4,339.4L10.4,339.4z"/>
<path class="st3" d="M491.1,251.4c5.3-2.6,10.5-0.4,15.4,0.7c15.2,3.6,25.5,13.2,32.7,27c5.5,10.5,7.4,21.5,8,33.1
	c-2.7,25-8.9,49.2-18.9,72.2c-15.3,35.2-36.9,66.1-64.2,93c-11.7,11.5-24.7,21.3-38.5,30c-11.5,7.2-23.2,14.1-35.5,19.6
	c-13.7,6.1-27.6,11.7-42.2,15.6c-3.5,0.9-6.9,2.4-10.6,1.6c-0.2-2,1.5-2.4,2.8-3c27.1-14.2,47.4-35.6,63.8-61
	c8.9-13.2,15.8-27.3,21.4-42.2c4.6-12.2,8.8-24.5,11.2-37.2c3.4-18.1,6.5-36.3,6.4-54.9c0-1.8,0-3.7,0.5-5.5
	c0.4-9.3-0.7-18.6-2.4-27.7c-1.7-9.6-3.9-19.2-7.6-28.4c-0.8-1.8-1.1-3.9-3-5c-1.9-3.2-4.6-6-5.1-9.9c8.4-4.8,16.8-9.6,26.8-10
	c2.3,0.5,3,2.5,3.9,4.2c10,19.3,14.2,40.2,16.8,61.5c1.4,11.2,0.7,22.5,0.9,33.7c-2.6,28.3-8,56-18.4,82.5c-0.3,0.8-0.6,1.5-0.9,2.3
	c-2.5,7.6-1.6,8,6.1,7.8c7.1-0.2,11.2-3.1,14.8-8.8c15.4-23.8,25.8-49.5,31-77.3c0.3-1.8,0.5-3.6,0.5-5.5c2.2-9.9,2.5-20.1,2.6-30.1
	c0.2-13.9-1.2-27.8-4.5-41.4c-2.7-11.4-6-22.4-12.5-32.3C491.7,254.6,490.7,253.2,491.1,251.4L491.1,251.4z"/>
<path class="st4" d="M523.2,163.3c-3.4-0.9-5.1-4.1-7.8-5.9c-11.1-7.2-23.3-11.3-36.5-12.1c-25.6-1.6-49.9,4.3-73.7,12.7
	c-26.9,9.5-52.3,22.3-77.2,36.1c-28.8,15.9-55.1,35.8-84.5,50.7c-17.2,8.7-34.6,16.8-52.9,23.1c-12.5,4.3-25.4,7.2-38.1,10.6
	c-0.4,0.1-0.9-0.4-1.3-0.6c6.7-8.7,14.9-16.1,22.9-23.6c24.2-22.4,50.2-42.5,77.6-60.8c35.8-23.9,73.7-43.8,115-56.7
	c19.2-6,38.8-10.1,58.9-11.7c20.2-1.6,40.2-1.2,59.4,6c4.2,1.6,8.2,3.5,12.3,5.3c9.5,6.6,18,14.3,24.5,24
	C522.4,161.3,523.4,162,523.2,163.3L523.2,163.3z"/>
<path class="st4" d="M216.3,8.1c26.2-6.3,52.8-9.5,79.7-7.5c13.6,1,27.2,3.7,40.3,7.9c-1.5,3.3-4.6,2.4-6.9,2
	c-14.7-2.3-28.9,0.1-42.8,4.7c-25.1,8.2-48.1,20.1-68.2,37.4c-24.1,20.6-41.5,46.2-55.6,74.2c-13.9,27.6-22.6,56.9-27.6,87.2
	c-1.9,11.4-2.1,23.2-2.5,34.8c-0.2,4.5-1.1,8-5.4,9.6c-4.2,1.5-4.8,6.1-8,8.4c-2.5-0.6-2.6-2.8-3.2-4.6c-6.4-22.2-9.3-45-8.1-68.1
	c1.9-37.7,10.1-73.9,28.6-107.1c16.8-30.3,38.7-56,68.7-74.3C208.8,10.4,212.9,10.2,216.3,8.1L216.3,8.1z"/>
<path class="st5" d="M425.2,269.2c2.3,3,4.9,5.9,5.1,9.9c-6.8,11.9-15,22.9-24.7,32.4c-11.2,11-22.2,22.4-34.6,32.3
	c-11.7,9.3-24.2,17.4-36.7,25.6c-24.3,16-50.3,28.2-77.3,38.4c-23.8,9-48.3,15.5-73.7,18.4c-31.8,3.6-63.4,2.9-94.6-4.9
	c-14.5-3.6-28.1-9.2-40.4-17.7c-12.1-10.2-22.5-21.7-29-36.3c4.1,0.9,5.3,5.1,8.3,7.4c10.9,8,23,13.4,35.7,17.4
	c25.1,8,51.2,7,77.1,5.9c19.3-0.9,38.4-5,57-10.4c17.6-5.1,34.9-11.3,51.8-18.7c4.6-2,9.2-3.5,14.1-4.6c2.5-0.2,4.6,0.2,6,2.6
	c1.1,1.9,2.9,2.3,4.8,1.4c5-2.2,10.5-3.7,15.7-4.6c7.3-1.4,14.1-4.3,21.4-5.5c3.3-0.6,6.5-1.4,9.4-3.1c9.4-5.5,18.7-11.4,28.7-15.3
	c9.5-3.8,18.1-9.5,28.2-12.2c4.7-1.3,9-5.2,11.6-9c3.9-5.8,9.2-10.8,11.1-18c1.2-4.4,3.2-8.6,6.4-12.3c3.3-3.9,4.1-9,5.7-13.6
	C416.6,272.9,420,268.8,425.2,269.2L425.2,269.2z"/>
<path class="st6" d="M74.3,89.3c22.1-22.8,46.4-42.6,75.1-56.6c0.9,2.9-1.5,4.2-2.9,5.8c-16.2,18.2-31.5,37-41.6,59.5
	c-11.2,25.1-18.4,51.2-21.6,78.6c-2.6,21.9-1.1,43.5,1.4,65.1c0.7,6.3,2.5,12.4,3.8,18.6c0.4,1.8,1.1,3.5,0.4,5.4
	c-1.4,1.8-3.3,1.5-4.9,0.6c-5.8-3.3-11.9-5.4-18.7-4.2c-1.3,0.2-2.6-0.4-3.9-0.8c-1.6-0.4-3.4-2.9-4.8,0.3c-0.2,0.4-1,0.5-1.4,0.3
	c-4.8-2.8-10.5-0.4-15.4-2.5c-1.9-1.7-2.1-4.1-2.7-6.3c-5-20.3-5.2-40.8-3.1-61.4c2.3-22.5,7.9-44.1,17.7-64.5
	c5.9-12.3,11.9-24.6,20.8-35.1C73.3,91.3,74.2,90.5,74.3,89.3L74.3,89.3z"/>
<path class="st3" d="M380.3,386.5c4.8,0.1,6,1.7,4.5,6.6c-2.7,8.8-7.2,16.9-12.2,24.5c-34.7,51.8-82.6,85.3-142.5,101.6
	c-7.1,2-14.6,3-21.8,4.4c-13.8,1.5-27.5,1.6-41.1-0.9c-23.1-4.3-43.2-15.1-61.8-29c-11.8-8.7-22.1-19-31.4-30.3
	c2.1-1.8,3.7-0.4,5.3,0.9c12.6,10.4,27.5,16.3,43.1,20c18.6,4.5,37.5,6.9,56.9,6.5c22.6-0.5,44.2-5,65.5-11.7
	c31.7-10,60.7-25.5,88.6-43.3c15.2-9.7,27.9-22.1,40.1-35.1C377.1,396.6,379.4,391.8,380.3,386.5L380.3,386.5z"/>
<path class="st3" d="M480,96c-0.6,0.1-1.4,0.4-1.9,0.1c-24.3-11.4-49.9-10.4-75.5-7.4c-37.9,4.6-73.5,16.8-107.5,33.8
	c-14.8,7.4-29.5,15-43.8,23.4c-28.1,16.6-54,36.2-78.4,57.8c-1.2,1-2,3.7-4.3,1.9c-2-1.6-2.6-3.8-1.8-6.3c2.1-7,5.2-13.6,8.7-20
	c20.4-21.1,42.4-40.3,67-56.3c35.4-24.1,73-43.2,114.6-54.1c18.5-4.8,37.1-8.2,56.2-7.8c16.4,0.3,32.5,2.8,47.1,11.2
	c6.8,5,12.5,11.1,18.3,17.3C480.3,91.4,480.8,93.5,480,96L480,96z"/>
<path class="st3" d="M88.6,266.3c-4.2-16.7-7.3-33.6-7.7-51c-0.2-9.2-1.3-18.7-0.3-27.7c1.7-15.9,3.8-31.9,7.9-47.5
	c9.5-36.4,26-68.8,51.8-96.5c3.2-3.5,7-6.5,9.2-10.9c17.9-10.5,37-17.8,57.1-22.8c3.2-0.8,6.5-1.2,9.7-1.8
	c-10.6,5.6-20.8,11.8-29.9,19.6c-35.2,30.1-57.6,67.9-69.1,112.6c-8,31.4-10.1,63.3-5.8,95.4c1.4,10.5,4.2,20.8,7.6,30.9
	c3.3,4.7,5.3,9.9,5.1,15.7c-7.7,0.8-15.4,1.3-23.1,1.1c-2,0-4,0.2-5.7-1C91,277.9,89.4,272.3,88.6,266.3L88.6,266.3z"/>
<path class="st5" d="M124.1,282.2c-1.7-5.2-3.4-10.5-5.1-15.7c1.3-4.9,4.7-8.2,9-10.3c2.8-1.3,3.1-3.1,3.2-5.8
	c0.8-23.1,3.1-45.8,9.3-68.2c8.8-32,21.8-61.9,40.4-89.3c16-23.7,35.7-43.8,60.2-58.6c18.9-11.4,39.1-20.5,61-24.5
	c8.3-1.5,16.8-2.2,25.3-0.6c2.8,0.5,5.9,1.2,8.7-0.6c2.3,1.1,4.6,2.2,6.9,3.3c4,1.8,4.9,4.6,2.9,8.4c-6.2,3.1-13,3.9-19.5,5.8
	c-47.9,14.4-88.4,40.7-121.5,78.1c-30.7,34.6-51.6,74.5-63,119.3c-4.2,16.7-6.4,33.6-7.1,50.8c-0.1,2.3-0.4,4.7,0.6,6.9
	C131.8,281.4,128,281.8,124.1,282.2L124.1,282.2z"/>
<path class="st7" d="M380.3,386.5c2.5,7.1-2.9,11.3-6.5,15.5c-16.1,18.7-35.8,33-56.9,45.5c-24.1,14.2-49.3,26-76,34.3
	c-15.8,4.9-31.9,8.3-48.5,9.6c-28.1,2.3-55.5-0.8-82.2-9.5c-11.7-3.8-22.9-8.9-32.3-17.2c-1.2-1.1-2.3-1.8-4-1.4
	c-0.2-0.2-0.4-0.5-0.7-0.8c-1.3-3.4-4.6-5.5-5.8-8.9c-0.9-2.4-1.3-4.4,2.5-3.4c1.7-0.6,2.9,0.6,4.2,1.2c14.2,6.5,29.2,10,44.5,12.7
	c21.9,3.9,44.1,4,66,2.8c21.4-1.2,42.4-6.1,62.9-12.5c24.8-7.8,48.7-17.8,71.8-29.7c20.4-10.5,40.2-22.1,58-36.8
	C378.1,387.2,379.3,386.9,380.3,386.5L380.3,386.5z"/>
<path class="st6" d="M460.3,72.3c-6.3-1-11.8-4.3-17.9-5.8c-14.3-3.6-28.7-4.5-43.5-3.4c-34.4,2.6-66.2,13.4-97.3,27.5
	c-11.6,5.3-22.6,11.5-33.6,18c-8.7,5.2-17.1,10.7-25.8,15.8c-0.6-0.1-1.4-0.2-1.9-0.6c-5.4-5.2-8.2-12.1-11.4-18.7l0,0
	c0.9-0.3,1.2-1,1.2-1.8c12.7-12.6,26.5-23.7,41.7-33.1c24.8-15.3,50.9-27.2,79.6-33c4.5-0.9,9.2-1.4,13.8-2.1
	c36.7-3.2,66.7,11.2,93.2,35C459.3,70.6,460.2,71.1,460.3,72.3L460.3,72.3z"/>
<path class="st5" d="M404.3,481.4c-4.6,9-11.3,16.4-17.8,23.9c-11.8,13.6-25.3,25.3-41.1,34.3c-2.7,1.5-5.4,3-8.1,4.5
	c-2.5,3.4-6.5,3-9.9,3.8c-25.8,5.9-52,6.5-78.2,4.2c-9.2-0.8-18.4-2.6-27.5-4.1c-5.6-1-6.9-4.2-4.1-9.3c10.1-1,20-2.9,29.9-5
	c2.7,3.1,6,2.2,9.2,1.4c27.2-7.3,51.9-19.7,74-37c17-13.4,32.5-28.5,45.2-46.2c1.1-1.5,2.1-3.2,4.2-3.1c2.3,0.2,3.1,2.3,3.9,4.1
	c0.7,1.7,1.2,3.5,0.8,5.4c-1.8,9.6,2.2,13.4,12.9,16.5c2.4,0.7,5,0.8,6.4,3.3C404.8,479.2,405,480.3,404.3,481.4z"/>
<path class="st3" d="M74.3,89.3c2,2.2-0.6,3.3-1.4,4.4c-15.6,21.5-26.3,45.2-32.9,70.9c-5.5,21.4-6.8,43.2-5.4,65.1
	c0.6,10,2.5,20.1,5.8,29.6c3,5.3,7,10.3,6.8,16.9c-2.9,0.9-5-1.1-7.3-2.2c-19.4-8.4-31.2-22.8-34.7-43.8c-0.2-1.1-0.7-1.8-1.8-2
	c0.1-1,0.2-2,0.3-2.9c0-0.7,0-1.4,0.4-2.1c1.2-11.9,4.9-23.3,8.9-34.5c9.3-26.4,22.5-50.8,39.3-73.1C59.2,106.4,66.1,97.3,74.3,89.3
	L74.3,89.3z"/>
<path class="st3" d="M69.9,450.2c-1.9,0.2-2.1,0.6-1.6,2.8c1,3.7,5.7,5.2,4.9,9.6c-3-2.4-5.1-5.7-7.6-8.6c-1.4-1.6-2.1-3.4-0.8-5.5
	C66.8,448.4,68.7,448.3,69.9,450.2L69.9,450.2z"/>
<path class="st2" d="M4.2,223.2c0.3,0.8,0.2,1.5-0.4,2.1C3.5,224.5,3.5,223.8,4.2,223.2z"/>
<path class="st4" d="M404.3,481.4c-0.3-3-1.9-5.1-5.1-5.1c-2.8,0-5.1-1.2-7.5-2.4c-8-4-9.2-6.3-8-15.5c0.1-1,0-1.9-0.2-2.9
	c-0.3-2.4-1-5.1-3.2-5.7c-2.2-0.6-2.8,2.3-4,3.8c-14.9,19.7-32.6,36.7-52.6,51.2c-13.5,9.8-28.3,17.3-43.6,23.9
	c-8,3.5-16.6,5.8-25.1,7.9c-2.3,0.6-7.3,3.4-7.6-3c8.6-4.5,17.9-7,26.8-10.6c19-7.6,35.8-18.8,52.1-30.7
	c25.8-18.9,46.1-42.7,62.8-69.8c10.3-16.7,16.3-35.2,21-54.2c0.3-1.2,0-2.6,1.5-3.5c11.7-6.8,21.7-15.8,31.7-24.8
	c2,9.8,0.6,19.6-0.5,29.2c-2.3,19.2-5.3,38.4-11.7,56.7C424.2,445.6,416.6,464.7,404.3,481.4L404.3,481.4z"/>
<path class="st7" d="M229.1,105.1c3.4,4.9,7.5,9.3,9.1,15.3c0.5,1.9,3.4,1.9,4.2,4c-22.9,15.4-43.6,33.3-63.2,52.6
	c-1.1,1-2,2.3-3.6,2.4c9.4-20.1,21.1-38.6,35.6-55.3C216.8,117.4,221.7,110.1,229.1,105.1L229.1,105.1z"/>
<path class="st5" d="M142.3,280.2c-1.6,1.8-3.5,1-5.4,0.8C138.6,279.9,140.4,280,142.3,280.2z"/>
<path class="st7" d="M230.2,103.3c1.6,1.9,0.1,1.8-1.2,1.8C228.9,104.1,229.5,103.7,230.2,103.3z"/>
<path class="st7" d="M47.2,276.1c-1.8-5.8-5.8-10.8-6.8-16.9c4.6,1.2,9.3-1.8,14.3,1.5c3.6,2.4,0.5-3.1,2.6-4
	c3.1,4.3,7.3,5.4,12.3,3.4c1.4-0.6,2.5-0.7,3.6,0.5c0.3,0.4,0.8,1,1.1,0.9c5.4-0.2,9.3,4.1,14.4,4.8c2.2,5.3,4.5,10.7,6.7,16
	c-6.1,2-12.1,0.1-18-0.7c-8-1.1-16.2-1.4-23.9-4.1C51.4,276.8,48.4,280.4,47.2,276.1L47.2,276.1z"/>
<path class="st6" d="M491.1,251.4c10,13.3,14,28.8,17.1,44.7c3.4,17.6,2.9,35.3,1.9,53c-0.2,3.8-2.4,7.3-1.9,11.2
	c-2.5,4.4-6,4.6-10.6,3.6c-6.7-1.5-13.7-0.8-20.5-2.7c-1.7-0.5-3.6-0.6-5-1.9c0-8.6,0.7-17.4-0.1-25.9c-2.4-25.8-6.8-51.1-20.1-74.1
	c0.6-0.6,1.1-1.5,1.7-1.7C466.1,254.9,478.1,250.3,491.1,251.4L491.1,251.4z"/>
<path class="st4" d="M412.1,274.4c0.8,6.4-2.1,11.1-6,15.9c-2.3,2.8-3.5,6.7-4.8,10.2c-1.5,4-2.2,8.4-6.4,10.8c-1,0.6-1.3,1.8-1.6,3
	c-0.9,3.3-2.7,6.1-6,7.5c-2.2,1-3.8,2.7-5.4,4.4c-1.9,2.1-4.2,2.5-6.8,3.3c-5.5,1.8-10.6,4.9-16,7.3c-4.4,2-9,3.7-13.4,5.5
	c-0.9,0.4-2.1,0.5-2.7,1.2c-6.5,6.6-16.3,7.6-23.2,13.4c-0.9,0.7-2.1,1.2-3.2,1.3c-6.3,0.8-12.2,4.7-17.8,5
	c-6.4,0.4-11.4,3.8-17.4,4.1c-1.5,0-3,0.6-4.3,1.2c-3.8,1.6-7.4,3.9-9.5-2.2c-0.6-1.7-3.3-0.4-4.3-2.1c11.5-8.5,25.2-12.9,37.5-20.1
	c17.5-10.2,34.8-20.6,51.5-32.1c11.3-7.8,23.3-14.4,34.7-22.1C395,284.4,404,280.1,412.1,274.4L412.1,274.4z"/>
<path class="st7" d="M472.2,359.3c5.9-0.1,11.4,2.3,17.3,2.3c3.8,0,7.6-0.1,11.3,1.6c3.2,1.5,4.6-2.7,7.4-3
	c-0.8,11.7-4.4,22.7-7.9,33.8c-5.3,16.8-13,32.5-22.8,47.2c-2.5,3.8-3.7,9-9.2,10.5c-4.2,1.2-8.7,0.6-13,2c-2.3,0.8-5-1.7-3.8-5.3
	c2.5-7.5,5.1-15,7.6-22.6c6.3-19.3,10-39.1,12-59.3C471.5,364.2,471.9,361.7,472.2,359.3L472.2,359.3z"/>
</svg>
