<?xml version="1.0" encoding="utf-8"?>
<!-- Generator: Adobe Illustrator 28.0.0, SVG Export Plug-In . SVG Version: 6.00 Build 0)  -->
<svg version="1.1" id="Layer_1" xmlns="http://www.w3.org/2000/svg" xmlns:xlink="http://www.w3.org/1999/xlink" x="0px" y="0px"
	 viewBox="0 0 1920 1080" style="enable-background:new 0 0 1920 1080;" xml:space="preserve">
<style type="text/css">
	.st0{fill:#75D7B0;}
	.st1{fill:#123D54;}
	.st2{fill:#144156;}
	.st3{fill:#5C8695;}
	.st4{fill:#10405A;}
	.st5{fill:#5E8895;}
	.st6{fill:#018271;}
	.st7{fill:#019C82;}
	.st8{fill:#0F3C53;}
	.st9{fill:#0A3C53;}
	.st10{fill:#0C374D;}
	.st11{fill:#017A68;}
	.st12{fill:#2EB793;}
	.st13{fill:#0C3A4E;}
	.st14{fill:#73D3AC;}
	.st15{fill:#5D8998;}
	.st16{fill:#2FB694;}
	.st17{fill:#04917C;}
	.st18{fill:#29B290;}
	.st19{fill:#1BA486;}
	.st20{fill:#22AB8C;}
	.st21{fill:#15997C;}
	.st22{fill:#5B8191;}
	.st23{fill:#2C9F81;}
	.st24{fill:#45B89E;}
	.st25{fill:#214652;}
	.st26{fill:#3DA48F;}
	.st27{fill:#009880;}
	.st28{fill:#01967C;}
	.st29{fill:#008D78;}
	.st30{fill:#02947D;}
	.st31{fill:#73D7B0;}
	.st32{fill:#70D4AD;}
	.st33{fill:#25B492;}
	.st34{fill:#113D51;}
	.st35{fill:#6AD1AC;}
	.st36{fill:#29B28B;}
	.st37{fill:#5C8391;}
	.st38{fill:#2CB690;}
	.st39{fill:#173B47;}
	.st40{fill:#40B295;}
	.st41{fill:#3E697B;}
	.st42{fill:#396576;}
	.st43{fill:#2F5B6C;}
	.st44{fill:#70D5AE;}
	.st45{fill:#598392;}
	.st46{fill:#547D8B;}
	.st47{fill:#4C7784;}
	.st48{fill:#446E7D;}
	.st49{fill:#376375;}
	.st50{fill:#3D6978;}
	.st51{fill:#0D3340;}
	.st52{fill:#0E3E57;}
	.st53{fill:#56808E;}
	.st54{fill:#04464C;}
	.st55{fill:#4DC59D;}
	.st56{fill:#46C49B;}
	.st57{fill:#039E80;}
	.st58{fill:#477180;}
	.st59{fill:#0A3D4D;}
	.st60{fill:#46C1A1;}
	.st61{fill:#0E3C56;}
	.st62{fill:#0D3A51;}
	.st63{fill:#3FBD97;}
	.st64{fill:#417081;}
	.st65{fill:#6AD6B0;}
	.st66{fill:#39BB93;}
	.st67{fill:#65D0AC;}
	.st68{fill:#31B790;}
	.st69{fill:#62D0B1;}
	.st70{fill:#0C374C;}
	.st71{fill:#4CBA97;}
	.st72{fill:#527A8A;}
	.st73{fill:#43C39E;}
	.st74{fill:#4DC9A0;}
	.st75{fill:#3ABD9A;}
	.st76{fill:#1E4E61;}
	.st77{fill:#18465B;}
	.st78{fill:#04454C;}
	.st79{fill:#04484B;}
	.st80{fill:#19AB86;}
	.st81{fill:#23B089;}
	.st82{fill:#2AB38D;}
	.st83{fill:#5BCBAA;}
	.st84{fill:#2B5A6C;}
	.st85{fill:#02A586;}
	.st86{fill:#18A08C;}
	.st87{fill:#54CA9F;}
	.st88{fill:#58CCA1;}
	.st89{fill:#567E8D;}
	.st90{fill:#487585;}
	.st91{fill:#4F7989;}
	.st92{fill:#3A6B7B;}
	.st93{fill:#67D4AB;}
	.st94{fill:#61D2A8;}
	.st95{fill:#5ACDA8;}
	.st96{fill:#51C7A4;}
	.st97{fill:#5BCCA4;}
	.st98{fill:#53CBA2;}
</style>
<g>
	<g>
		<path class="st0" d="M955,239.2c0.9-0.7,1.7-1.7,2.7-1.9c7.3-1.5,14.6-2.8,21.9-4.1c18.2-3.4,36.6-4.3,54.9-2.8
			c14.9,1.2,29.6,4.9,44.4,7.5c0.8,0.1,1.4,0.8,2.1,1.2c-2.6,0.1-5.2,0.3-7.7,0.2c-4.1-0.2-8.2-1.1-12.3-1.1
			c-20.1,0.4-39.1,5.5-56.9,14.9c-8,4.3-16.6,7.8-24,13c-10.6,7.4-20.6,15.6-30.3,24.2c-5.5,4.9-9.8,11.1-14.7,16.7
			c-2,2.4-4.2,4.6-5.9,7.2c-7,10.6-14,21.2-20.9,31.9c-2.2-0.8-4.4-2.1-6.7-2.1c-3.5-0.1-7.2,1.1-7.8-4.2c-0.1-0.7-1.8-1-2.7-1.7
			c-1.1-0.8-2.5-1.6-3.1-2.8c-2.1-4.1,0-12.3,2.4-16.2c1.4-2.3,1.9-6.7,0.7-8.9c-1.5-2.6-4.7-0.8-6.7,1.3c-0.3,0.3-0.9,0.4-1.3,0.6
			c9-12.4,17.3-25.2,27.1-36.9C922.5,260.2,938.2,248.9,955,239.2z"/>
		<path class="st1" d="M1289,541c-3.3,30.8-11.7,60.1-25.8,87.6c-5.1,10-11.2,19.5-16.8,29.2c-0.6,1.1-1.6,1.9-2.5,2.9
			c-0.9,0.2-2.1,0.1-2.7,0.6c-2.4,2.1-4.7,4.5-7,6.8c-0.4-0.3-0.8-0.6-1.1-0.9c0.3-1,0.6-2,0.8-2.9c1.4-5.9,2.3-11.8-0.9-17.5
			c0.7-1.7,1.3-3.3,2-5c1.3-3,2.6-6.1,3.8-9.1c0.7-2.2,1.3-4.4,2-6.5c1.7-5.2,3.3-10.3,5-15.4c1.3-7,2.7-14,4.1-21
			c0.7-5.7,1.3-11.3,1.9-17c0.3-3.8,1.1-7.6,0.9-11.4c-0.8-12.1-1.2-24.2-3-36.2c-2.3-15.9-7.1-31.1-16.9-44.2c0.7-0.3,1.4-1,2.2-1
			c15.5,0.3,28.9,5.4,38.8,17.8C1283.8,510.3,1288.3,525,1289,541z"/>
		<path class="st2" d="M1032.1,355c-8.7,4.3-17.3,8.6-26,12.9c-1.7-1.7-3.3-3.4-5-5.1c-4.1,3.9-4.3-1.9-6.6-4c2.9-1.8,4-4,0.4-6.6
			c3.8-1,6.8-1.8,9.8-2.7c-0.1-0.4-0.1-0.7-0.2-1c-1.1-0.3-2.2-0.6-4.6-1.2c3.6-0.2,5.7-0.3,7.6-0.4c0.3,1.2,0.5,3.4,0.9,3.4
			c3.2,0.5,6.5,0.5,9.2,0.7c-0.7-2.3-1.6-3.6-1.3-4.5c0.9-2.5,2.4-4.7,3.6-7c0.6-0.1,2-0.3,3.1-0.8c1.1-0.5,2-1.4,3.1-2
			c1.8-0.9,3.9-1.3,5.4-2.6c2.8-2.4,4.8-5.6,7.8-7.7c1.8-1.3,5.5-2.3,6.8-1.3c3.8,2.8,5.3,0.2,8.1-1.3c-3.6-1.4-6.4-2.6-9.2-3.7
			c0.6-0.4,1.1-0.8,1.6-1.1c36-16.2,73.2-27.5,113.3-26.8c3.6,0.4,7.2,0.8,10.8,1.3c12.9,1.8,25.1,5.8,36.3,12.6c5,5,9.9,10,14.9,15
			c-0.1,1.6-0.2,3.3-0.3,4.3c-9.1-2.5-17.4-4.9-25.8-7.2c0.8-0.1,1.5-0.3,2.3-0.4c0-0.5,0-1,0-1.6c-13-0.4-26-0.8-38.9-1.2
			c-10.8,1.3-21.6,2.4-32.3,4.1c-7,1.1-13.8,3.2-20.6,4.9c0.1,0.3,0.2,0.6,0.2,0.9c0.7,0.1,1.3,0.1,2,0.2c-3.8,1.2-7.6,2.5-11.5,3.8
			c-5.2,1.7-10.5,3.4-15.7,5c-1,0.4-2,0.7-3.1,1.1C1062.7,341.7,1047.4,348.3,1032.1,355z"/>
		<path class="st3" d="M816.3,319c7-6.6,14-13.3,21-20c0.2,2.3,0.3,4.7,0.6,7c0.1,1,0.3,2.3,1,3c4.2,4.5,6.2,9.1,0.2,13.9
			c2.7,2.9,4.6,5.5,1.6,9c-0.3,0.4,0.9,2.1,1.4,3.2c-14.2,33.8-19.9,69.3-19.7,105.8c0,4.2,0,8.3,0,12.5c-0.5,0-1,0-1.5,0
			c0-3.5,0-7.1,0-10.6c-1.1,0.3-2.1,0.5-3.1,0.7c0.3-0.4,0.7-0.7,1-1.1c-4.3-6.7-8.8-13.3-13-20c-1.5-2.4-2.8-5-3.3-7.8
			c-0.5-2.5-0.6-4.7-3.8-4.6c-3.5,0.2-4.2-2-4.3-4.8c-0.1-4.8,0-9.6,0-14.5c0-5.3-3.6-8.4-9-7.8c0.3-1.1,0.4-2.3,0.8-3.4
			c6.9-20.3,16.3-39.3,29-56.7C815.8,321.9,815.9,320.3,816.3,319z"/>
		<path class="st4" d="M955,239.2c-16.9,9.6-32.5,21-45,35.9c-9.8,11.7-18.1,24.6-27.1,36.9c-0.2,0.4-0.4,0.7-0.7,1.1
			c-2.4,4.6-4.8,9.1-7.2,13.7c-3,6.8-6.4,13.5-8.7,20.5c-3.7,11.1-6.8,22.5-10.1,33.7c-0.2-0.4-0.4-0.7-0.7-1.1c0,0-0.3,0.1-0.3,0.2
			c-1,5.3-2,10.6-3,15.9c-1.3,0.3-2.5,0.7-3.8,0.9c-1.9,0.3-5,1.2-5.4,0.5c-2.1-3.4-7.7-6.1-5.2-10.8c2.3-4.3,0.6-6.4-1.4-7.7
			c0-5,0-8.9,0-11.6c1.4-3,3.3-5.2,3.1-7.1c-0.6-4.8,1.3-8.4,3.6-12.2c0.7-1.2,0.9-2.8,1.1-4.3c0.6-4.1,1-8.3,1.5-12.5
			c0.1-1-0.2-2.1-0.3-3.1c0.5-2,0.6-4.4,1.7-6.1c5.4-8.7,10.6-17.7,16.8-25.8c9-11.7,18.8-22.7,28.3-34
			c18.1-11.1,37.8-18.1,58.3-22.9C952,238.9,953.5,239.2,955,239.2z"/>
		<path class="st5" d="M1159.8,292.1c-40-0.7-77.2,10.6-113.3,26.8c-0.6,0.3-1.1,0.7-1.6,1.1c-2.6,1-5.2,2-7.8,3.1
			c-0.2-0.6-0.3-1.1-0.5-1.7c7.1-0.2,6.2-6.2,6.2-10.1c0-11.1,5.1-18.5,15.2-23.5c-3.7-1.5-6-5.4-10.7-3.2c-0.9,0.4-2.4-0.4-3.7-0.6
			c13.2-4.9,26.2-10.6,39.6-14.5c9.9-2.9,20.5-3.5,30.8-5.2c14,0.1,27.8,1.3,40.8,6.9c6.2,2.6,12,6,18,9
			c-7.9-1.1-10.4,3.8-11.6,10.5c1.1,0.3,2.3,0.7,3.4,1c0,0.2-0.1,0.4-0.1,0.6C1163.1,292.1,1161.5,292.1,1159.8,292.1z"/>
		<path class="st6" d="M752.5,568.1c1.5,0.6,3.3,0.8,4.3,1.7c13.8,13.2,30.9,18.9,49.2,22c27.8,4.6,55.6,4,83.4,0.1
			c3.2-0.5,6.5-0.8,9.7-1.2c0.8,0.1,1.5,0.2,2.3,0.3c0,0.2,0,0.5,0,0.7c-4.8,0.9-9.5,1.8-14.3,2.7c-0.2,0.4-0.5,0.8-0.7,1.1
			c1.6,1.1,3.1,2.8,4.9,3.3c3.8,0.9,7.8,1.6,11.7,1.6c6.1-0.1,12.2-1.1,18.3-1.3c5.2-0.2,10.8,2.7,15-3.6c0.8,1.7,1.3,2.8,1.4,3
			c4.7,0,8.8-0.2,12.8,0c5.9,0.3,11.7,1.2,17.6,1.3c7.3,0.2,14.6,0.4,21.6-2.5c1-0.4,2.4,0.3,3.6,0.5c-3,1.4-6,2.8-8.9,4.2
			c-4.8,1.7-9.6,3.5-14.4,5c-13.8,4.4-27.7,8.7-41.5,13c-1.5-0.7-3.3-1.1-4.4-2.2c-5.3-5.5-11.7-2.3-17.6-2.2
			c-4.9,0.1-9.9,1.2-14.8,0.8c-7.8-0.7-15.5-2.6-23.3-3.3c-3.9-0.3-8.3-0.2-10.3,3.2c-1.1-1.8-1.8-4-3.4-5.4
			c-1.4-1.3-3.6-1.7-5.5-2.3c-0.4-0.1-1.4,0.6-1.7,1.2c-3.2,6.9-9.5,7.8-14.8,2.5c-1.3-1.3-3.9-1.9-5.8-1.7
			c-7.3,0.8-13.4-2.1-19.7-4.9c-3.8-1.7-7.7-2.9-11.6-4.2c-0.2-0.1-0.8,1.3-0.6,1c-1.8,0-3.1-0.4-4,0.1c-2.7,1.5-4.7,1.4-5.7-2.1
			c-0.8,1.2-1.3,2-1.9,2.9c-0.5-0.9-0.2-1.5-0.2-2c0-0.7-0.2-1.5-0.3-2.2c-8.5,1.1-14.5-4-21.3-6.7c0.7-0.8,1.1-1.3,1.5-1.8
			c-0.2-0.3-0.4-0.6-0.5-0.9c-1.4,0.5-2.8,1-4.2,1.4c-2.2-6.8-4.4-13.5-6.5-20.3C751.5,570,752.2,569,752.5,568.1z"/>
		<path class="st7" d="M884.2,509.8c2.7-0.6,5.3-1.3,8-1.9c12.6-3,25.2-6.1,37.9-9.1c0.9,0.6,1.9,1.9,2.6,1.7
			c2.8-0.9,5.3-2.8,8.1-3.1c3.3-0.4,6.8-0.1,10,0.9c3.3,1,6.3,3.1,9.4,4.7c0,8.2-1.9,9.5-8.9,6.6c-2.7,2-5.3,3.9-8,5.9
			c0.4,0.9,1,2.3,1.7,3.8c-1.2,0-1.7-0.4-2.2-0.8c-5.6-4.7-5.8-4.6-11.9,0.2c-0.9,0.7-2.6,0.6-4,0.7c-4.1,0.4-8.4,0.1-12.4,1.2
			c-2.9,0.8-5.1,2.7-8.7,1.2c-1.8-0.8-4.9,1.5-7.5,2.5c-0.8,0.3-1.4,1.2-2.2,1.2c-11.4,0.3-22.9,0.3-34.3,0.6
			c-3.3,0.1-6.6,1.1-9.9,0.8c-3.7-0.3-7.2-1.6-10.9-2.3c-1-0.2-2.4,0-3.2,0.7c-2.7,2.2-4.9,2.1-7.5-0.3c-0.9-0.8-2.8-0.8-4.2-0.9
			c-8-0.7-16-1.3-24-2.1c-1.2-0.1-2.2-1.5-3.4-1.8c-6.9-1.6-13.8-3.1-20.7-4.5c-0.1,0-0.3,0.1-0.5,0.2c-4.5,1.7-8.3,0-12.2-2
			c-3.7-1.8-7.6-4.5-11.4-4.4c-5.3,0.1-6.2-3.2-7.6-6.5c-0.3-0.8-0.5-1.6-1.1-3.3c-0.6,1.5-0.8,2.1-1,2.7c-0.6-1.4-1.3-2.7-1.9-4
			c0.1-7.6-0.3-15.2,0.4-22.8c0.6-7.5,2.2-15,3.4-22.4c2.4,8.5,3.7,17.6,7.4,25.5c6.9,14.5,19.6,22.9,34.7,27.6
			c5.3,1.2,10.7,2.8,16.1,3.5c11.2,1.4,22.5,2.4,33.7,3.5c9.4-0.3,18.8-0.7,28.2-1c3-0.3,6-0.6,9-1
			C878.3,510.5,881.3,510.2,884.2,509.8z"/>
		<path class="st8" d="M788.3,505.8c-15.2-4.7-27.8-13.1-34.7-27.6c-3.8-7.9-5-16.9-7.4-25.5c2.9-11.5,5.1-23.3,9-34.5
			c11.8-34.3,30.6-64.6,54.3-92c2.2-2.5,4.5-4.8,6.8-7.3c-0.4,1.3-0.4,2.8-1.2,3.9c-12.7,17.4-22.1,36.4-29,56.7
			c-0.4,1.1-0.5,2.2-0.8,3.4c-1,3.6-2.1,7.2-3.1,10.9c-6.7,24-7.6,48.5-4.7,73.1c1.3,6,2.5,12,3.8,18c2.2,6,4.5,12,6.7,18
			C788.3,503.8,788.2,504.8,788.3,505.8z"/>
		<path class="st9" d="M1160.8,740.6c-9.6,5.3-18.9,11.6-29,15.7c-16.6,6.8-33.8,12.2-50.8,18.1c-0.9,0.3-2,0.3-2.9,0.4
			c0.8-0.7,1.6-1.6,2.5-2.2c3.2-1.9,6.4-3.8,9.6-5.7c6.7-4.8,13.3-9.5,20-14.3c6.9-7,13.8-14,20.7-21.1c5.9-7.7,11.8-15.4,17.7-23
			c1.3-1.2,2.9-2.2,3.7-3.6c5.3-10,10.6-19.9,15.4-30.1c2.4-5.1,3.6-10.8,5.3-16.2c0.7-1.4,1.5-2.8,2-4.3c1.7-5.2,3.3-10.5,5-15.7
			c0.2,2.3,0.9,4.6,0.4,6.8c-1.2,5.3-2.7,10.6-4.4,15.8c-1.9,5.8-4.5,11.4-6.2,17.2c-1,3.5-1.2,7.5-1,11.2c0,0.8,3.2,1.4,4.9,2.1
			c-4.7,5-5.2,5.7-4.7,8.8c0.2,1,1.2,2,1.8,3c1-0.8,2.6-1.5,3-2.6c2.4-6.9,7.1-11.3,14.1-13.3c-2,4.7-4,9.3-6,14
			c-3.7,5.6-7.3,11.2-11.1,17c1.3,0.8,2.2,1.4,3.1,2c-0.5,0.4-1.1,0.8-1.4,1.3c-4.3,5.7-8.6,11.5-12.8,17.3
			C1159.6,739.4,1160.4,740.2,1160.8,740.6z"/>
		<path class="st10" d="M920.2,753.7c-13.8-1.4-27-4.8-39.6-10.7c-24.2-11.2-45.2-26.8-62.2-47.5c1.3,0.4,2.6,0.7,4,1.1
			c4.6,2.7,9,5.8,13.8,7.8c8.6,3.7,17.4,6.8,26.1,10.1c16.4,4.1,33,6.7,49.9,7c7.7-0.3,15.3-0.7,23-1c2.7-0.3,5.3-0.7,8-1
			c1.8-0.1,3.7,0.2,5.4-0.2c12.2-2.8,24.3-5.8,36.4-8.7c0.5,1.2,1.1,2.5,1.6,3.7c-1.7,0.7-3.7,2.2-5,1.8c-4.5-1.6-7.8-2-10.3,3.2
			c-0.6,1.3-4.7,2.3-6.2,1.6c-5.1-2.6-9-1.4-12.9,2.1c-2.7,2.4-14.7,3.7-16.9,2.1c-4.5-3.2-16-1.7-19.4,2.6c-0.1,0.2,0,0.6,0.2,1.9
			c8.2-2.2,8.1,4.3,9.4,9c-1.2,1.1-2.2,2-3.2,2.9c1.9,2,3.8,4,5.8,5.9c-2.3,1-4.9,2-7.5,3.1c0.1,0.6,0.2,1.2,0.3,1.8
			c11.8-0.7,23.6-1.4,35.3-2.2c5-0.3,9.9-1,14.8-1.5c-8.6,1.7-17.3,3.4-25.9,5.1l0,0C936.9,753.7,928.5,753.7,920.2,753.7z"/>
		<path class="st11" d="M758.2,591c1.4-0.5,2.8-1,4.2-1.4c0.2,0.3,0.4,0.6,0.5,0.9c-0.5,0.5-0.9,1-1.5,1.8
			c6.8,2.7,12.8,7.8,21.3,6.7c0.1,0.7,0.3,1.5,0.3,2.2c0,0.6-0.3,1.2,0.2,2c0.6-0.9,1.2-1.8,1.9-2.9c1,3.5,3,3.6,5.7,2.1
			c0.9-0.5,2.2-0.1,4-0.1c-0.2,0.3,0.5-1.1,0.6-1c3.9,1.3,7.9,2.5,11.6,4.2c6.3,2.8,12.5,5.7,19.7,4.9c1.9-0.2,4.5,0.4,5.8,1.7
			c5.3,5.3,11.6,4.3,14.8-2.5c0.3-0.5,1.2-1.3,1.7-1.2c1.9,0.6,4.1,1,5.5,2.3c1.5,1.4,2.3,3.6,3.4,5.4c2-3.4,6.4-3.6,10.3-3.2
			c7.8,0.7,15.5,2.6,23.3,3.3c4.9,0.4,9.9-0.7,14.8-0.8c5.9-0.1,12.3-3.3,17.6,2.2c1.1,1.1,2.9,1.5,4.4,2.2c-1,0.3-2,0.7-3,1
			c-1.5,0.2-2.9,0.3-4.4,0.6c-9.9,1.8-19.8,3.5-29.6,5.3c-4.3,0.3-8.6,0.7-13,1c-1.4,0-2.7,0-4.1,0c-10.7,0-21.3-0.1-31.9-0.1
			c-7.3-0.7-14.6-1.4-22-2.1c-4.1-1.1-8.3-1.9-12.3-3.2c-14-4.5-27.4-10.4-39.6-18.8c-2.7-3-5.4-5.9-8.1-8.9
			C759.6,593.6,758.9,592.3,758.2,591z"/>
		<path class="st12" d="M1004.1,253.1c17.8-9.3,36.8-14.4,56.9-14.9c4.1-0.1,8.2,0.8,12.3,1.1c2.6,0.1,5.2-0.1,7.7-0.2
			c7.6,2.5,8.7,4.3,6.9,10.8c-7.8,2.4-15.5,4.8-23.3,7c-22.1,6.5-42.4,17.1-62.2,28.6c-3.3,1.9-6.2,4.4-9.3,6.6
			c0.7-1.3,1.2-3,2.3-3.9c4.6-3.6,9.3-7,14-10.5c0.1,0.2,0.3,0.5,0.4,0.8c2.4-1.5,4.8-3,7.2-4.6c-0.2-0.5-0.5-1-0.7-1.4
			c-1.4,0-2.8,0-5.3,0c-0.3-0.1-1.8-0.6-4-1.3c-0.6-2.8,2.5-7.4-1.8-10.8c-0.2-0.2,1.2-2.4,2.2-4.2
			C1006.8,255.4,1005.4,254.3,1004.1,253.1z"/>
		<path class="st13" d="M1160.8,740.6c-0.4-0.5-1.2-1.3-1.1-1.4c4.2-5.8,8.5-11.6,12.8-17.3c0.4-0.5,1-0.9,1.4-1.3
			c8.7-8.7,17.3-17.3,26-26c4.3-4.7,8.6-9.3,12.9-14c3.7-6,7.4-12,11-18c3-5.3,6-10.7,9.1-16c3.2,5.7,2.3,11.6,0.9,17.5
			c-0.2,1-0.5,2-0.8,2.9c0.4,0.3,0.8,0.6,1.1,0.9c2.3-2.3,4.6-4.6,7-6.8c0.6-0.5,1.8-0.4,2.7-0.6c-18.4,27.9-40.8,52-68.4,70.9
			C1170.8,734.8,1165.7,737.6,1160.8,740.6z"/>
		<path class="st14" d="M1163,355.1c17-0.8,34.2-3.1,50.9,2c8.8,2.7,17.2,6.7,25.8,10.2c1.8,0.7,3.5,1.8,5.2,2.7
			c9.1,7.8,17.2,16.4,23.1,26.9c-1.4-1-2.7-2.1-4.1-3.1c-6.5-7.5-15-11.6-24.2-14.9c-12.7-4.5-25.7-4-38.8-4
			c6.3-0.5,12.6-0.9,19.1-1.4c-9.8,0-19.4,0-28.9,0c-0.5-1.3-1.2-2.9-1.9-4.8c-2.9,2-3.9,7.3-8.2,3c2.5-3.6,5-7.1,7.4-10.6
			c-4.1-2.7-9.9,0.2-12.4-4.7C1171.8,356,1167.4,355.6,1163,355.1z"/>
		<path class="st15" d="M892.3,262.2c-9.5,11.3-19.3,22.3-28.3,34c-6.2,8.1-11.4,17.1-16.8,25.8c-1.1,1.7-1.2,4.1-1.7,6.1
			c-1.1,2.3-2.2,4.6-3.3,7c-0.5-1.1-1.8-2.8-1.4-3.2c3-3.4,1.1-6-1.6-9c6-4.8,4-9.3-0.2-13.9c-0.7-0.7-0.9-2-1-3
			c-0.3-2.3-0.4-4.7-0.6-7c16.1-14.8,34.3-26.5,53.5-36.9C891.2,262,891.8,262.2,892.3,262.2z"/>
		<path class="st16" d="M1090.1,767c-3.2,1.9-6.4,3.7-9.6,5.7c-0.9,0.6-1.7,1.4-2.5,2.2c-3.7,0.9-7.3,1.8-11,2.7
			c0.3-0.6,0.5-1.6,1.1-1.9c2.1-0.9,4.4-1.4,6.4-2.4c1-0.5,2.4-2,2.2-2.7c-0.4-1.4-1.5-3.4-2.7-3.7c-6.6-2-13.4-3.5-20.1-5.3
			c-1.6-0.4-2.9-1.5-4.4-2.2c0,0-0.1,0.1-0.1,0.1c-3.3-1.3-6.6-2.7-10.1-4.1c1-2.2,4.5-4.3-0.2-4.8c9-5.3,18-10.7,27-16
			c-0.1,2.8,0.5,5.7-0.3,8.3c-1.1,3.4,0.5,4.3,3,5.6c8.4,4.3,16.7,8.8,25.2,13.2C1092.5,763.6,1091.3,765.3,1090.1,767z"/>
		<path class="st17" d="M1289,541c-0.7-16-5.2-30.7-15.3-43.2c-9.9-12.3-23.3-17.5-38.8-17.8c-0.7,0-1.4,0.6-2.2,1
			c-1.2-0.3-2.6-1.2-3.7-0.9c-12.1,2.5-24.1,5.2-36.1,7.9c-6,2.2-12.1,4.2-18.1,6.6c-2.8,1.1-5.3,2.9-8,4.4c-1.3,0-2.6,0-3.9,0
			c0.4-0.5,0.7-1.2,1.2-1.5c3.6-1.9,7.2-3.7,10.8-5.5c5.1-1.8,10.3-3.4,15.4-5.3c3.1-1.1,5.8-3.1,9-3.9c8.3-1.9,16.7-4.1,25.1-4.6
			c11.8-0.7,23.9-1.1,34.6,5.8c2.9,1.9,5.8,1.8,8.6-0.5c0.6-0.5,2.1-0.7,2.8-0.4c3.9,2.1,7.6,4.5,11.7,6.9c2.3-2.4,6.5-4.7,1.4-9.1
			c-0.3-0.3-0.3-0.9-0.4-1.4c-1.1-7.2-5.2-12.5-10.4-17.2c-2.1-2-3.9-4.2-5.9-6.4c11.8,6.5,18.5,16.7,21.9,29.4
			c0.2,0.9,0.6,1.8,0.9,2.7c0.4,12.3,1.1,24.5,1.1,36.8C1290.9,530.2,1289.7,535.6,1289,541z"/>
		<path class="st18" d="M1039.1,750.6c4.7,0.5,1.3,2.5,0.2,4.8c3.5,1.4,6.8,2.8,10.1,4.1c0,0,0.1-0.1,0.1-0.1
			c1.5,0.8,2.8,1.8,4.4,2.2c6.7,1.8,13.5,3.3,20.1,5.3c1.2,0.4,2.3,2.3,2.7,3.7c0.2,0.6-1.2,2.2-2.2,2.7c-2,1-4.3,1.5-6.4,2.4
			c-0.5,0.2-0.7,1.2-1.1,1.9c-5.3,0.7-10.7,1.3-16,1.9c0-1.8,0-3.5,0-5.4c-11.4-3.8-23.8-5.9-34-13.5c6-3,12.1-5.9,18.1-8.9
			C1036.5,751.3,1037.8,751,1039.1,750.6z"/>
		<path class="st19" d="M996.9,781.7c-11.7-1.6-23.4-3.2-35.1-4.8c-3.7-0.5-4-3.3-3.5-6.3c2.9-0.1,5.8-0.1,8.7-0.3
			c7.1-0.5,14.2-1.1,21.3-1.7c4.3-1,8.6-2,13-3c2.2,0,4.5,0,6.5,0c0,2.4,0,3.8,0,5.2c0,1.5-0.2,3.1-0.2,4.9c1.8-0.3,3.7-0.6,5.6-1
			c1.3,4.5,2.8,4.9,7.6,2.4c1.9,1.3,3.5,2.3,5.2,3.4c-0.1,0.4-0.1,0.8-0.2,1.2C1016,781.7,1006.4,781.7,996.9,781.7z"/>
		<path class="st20" d="M996.9,781.7c9.6,0,19.1,0,28.7,0c0.1-0.4,0.1-0.8,0.2-1.2c-1.6-1-3.2-2.1-5.2-3.4c-4.8,2.5-6.3,2.2-7.6-2.4
			c-1.9,0.3-3.8,0.6-5.6,1c0.1-1.8,0.2-3.4,0.2-4.9c0-1.4,0-2.9,0-5.2c-2.1,0-4.3,0-6.5,0c5.3-1.7,10.6-3.3,16-5
			c10.2,7.6,22.6,9.7,34,13.5c0,1.9,0,3.7,0,5.4c-3.7,0.8-7.3,2.4-11,2.4C1025.7,782.1,1011.3,781.8,996.9,781.7z"/>
		<path class="st21" d="M1277.5,415.1c0.1,2.1,0.2,4.2,0.3,7.3c-1.8-1.3-2.9-1.9-3.7-2.8c-10.5-11.2-23.9-15.8-38.7-16.8
			c-27.8-1.8-53.6,6-78.6,16.9c-17.5,7.6-34.5,16.2-51.7,24.3c1.7-1.4,3.3-3.3,5.2-4.2c13.6-6.6,27-13.4,40.8-19.4
			c26.8-11.7,54.3-21.2,84.3-19.5c10.5,0.6,20.6,2.7,29.7,8.5c2.1,1.3,4.6,1.9,6.9,2.9c0.3-0.4,0.7-0.8,1.1-1.2
			c-0.7-1.9-1.1-4-2-5.7c-2.2-4-4.7-7.8-7.1-11.7c1.4,1,2.7,2.1,4.1,3.1C1271.2,403,1274.4,409,1277.5,415.1z"/>
		<path class="st22" d="M1159.8,292.1c1.6,0,3.2,0,4.9,0c0-0.2,0.1-0.4,0.1-0.6c-1.2-0.4-2.3-0.7-3.4-1c1.2-6.7,3.7-11.6,11.6-10.5
			c12.8,6.7,24.1,15.4,33.9,26c-11.2-6.8-23.4-10.8-36.3-12.6C1167,293,1163.4,292.6,1159.8,292.1z"/>
		<path class="st23" d="M894.3,657.5c-30.9,0.7-61.1-3-89.6-15.9c-5.8-2.6-10.8-6.8-16.2-10.3c-1.4-0.9-2.8-1.8-4.1-2.6
			c-4.4-5.2-8.8-10.3-13.2-15.5c0.1-0.5,0.1-0.9,0.2-1.4c1.4,1.4,2.8,2.7,4.1,4.2c13.5,16.1,30.1,27.2,50.8,31.8
			c9.3,2.1,18.7,4,28,6c7,0.7,14,1.3,21,2c1.8,0,3.6-0.1,5.4,0c5.2,0.3,10.4,0.6,15.5,1C895.6,657,894.9,657.3,894.3,657.5z"/>
		<path class="st24" d="M988.2,768.6c-7.1,0.6-14.2,1.2-21.3,1.7c-2.9,0.2-5.8,0.2-8.7,0.3c0-0.6,0.1-1.2,0.1-1.7
			c5-0.8,10-1.5,15-2.3c1.9-0.3,3.8-0.7,5.7-1C982.8,764.4,985.3,767.1,988.2,768.6z"/>
		<path class="st25" d="M822.3,696.7c-1.3-0.4-2.6-0.7-4-1.1c-4-4.6-8.1-9.2-12.1-13.8c0.6-4.7,1.2-4.9,7-1.8
			c-3.4,1.7-2.5,3.8-0.6,6C815.8,689.5,819.1,693.1,822.3,696.7z"/>
		<path class="st26" d="M771.4,611.8c-0.1,0.5-0.1,0.9-0.2,1.4c-3.6-6.1-7.3-12.2-10.9-18.3c2.7,3,5.4,5.9,8.1,8.9
			C769.4,606.4,770.4,609.1,771.4,611.8z"/>
		<path class="st27" d="M1266.9,455.9c1.9,2.1,3.8,4.4,5.9,6.4c5.1,4.8,9.3,10.1,10.4,17.2c0.1,0.5,0.1,1.1,0.4,1.4
			c5.1,4.3,0.9,6.7-1.4,9.1c-4.1-2.4-7.9-4.8-11.7-6.9c-0.7-0.4-2.2-0.2-2.8,0.4c-2.8,2.4-5.7,2.5-8.6,0.5
			c-10.7-7-22.8-6.6-34.6-5.8c-8.4,0.5-16.8,2.8-25.1,4.6c-3.1,0.7-5.9,2.7-9,3.9c-5.1,1.9-10.2,3.5-15.4,5.3
			c-2.4-3.3-5.3-5.4-9.6-4.9c-4.8,0.6-9.6,1-15.2,1.6c0,0-1,0.9-1.3,2c-1.2,4.4-3.2,5.7-7.4,2.9c-0.9-0.6-3.3,0.5-4.7,1.3
			c-3.7,2-7.2,4.2-10.8,6.3c-2.9,1.7-6.3,2.8-8.6,5.1c-4.5,4.6-10.3,7-16,9.2c-7.2,2.8-14.9,4.3-22.4,6.4c-1.4,0.4-2.7,1.5-4.1,1.8
			c-8,1.9-12.7,10.3-21.4,10.8c-0.6,0-1.1,1.1-1.5,1.8c-4.2,7.2-10.6,10.2-18.7,9.5c-1.2-0.1-2.3-1.3-3.5-2c0.8-1.1,1.3-2.7,2.4-3.3
			c14-8.2,28.2-16.2,42.1-24.5c2.1-1.2,3.2-4,4.7-6.1c15.1-9.1,29.9-18.4,45.2-27.2c22.2-12.8,45.4-23.5,70.1-30.6
			c18.8-5.4,38-9,57.4-3.1C1257,450.6,1261.9,453.5,1266.9,455.9z"/>
		<path class="st28" d="M744.3,502.1c0.2-0.6,0.5-1.2,1-2.7c0.5,1.7,0.8,2.5,1.1,3.3c1.5,3.4,2.3,6.6,7.6,6.5
			c3.8,0,7.7,2.6,11.4,4.4c3.9,2,7.8,3.6,12.2,2c0.2-0.1,0.3-0.2,0.5-0.2c6.9,1.5,13.8,2.9,20.7,4.5c1.2,0.3,2.2,1.6,3.4,1.8
			c8,0.8,16,1.4,24,2.1c1.5,0.1,3.3,0.1,4.2,0.9c2.6,2.4,4.8,2.5,7.5,0.3c0.8-0.6,2.2-0.8,3.2-0.7c3.7,0.7,7.2,2,10.9,2.3
			c3.3,0.2,6.6-0.8,9.9-0.8c11.4-0.3,22.9-0.4,34.3-0.6c0.7,0,1.4-0.9,2.2-1.2c2.5-1,5.7-3.2,7.5-2.5c3.6,1.6,5.8-0.4,8.7-1.2
			c3.9-1.1,8.2-0.8,12.4-1.2c1.4-0.1,3.1,0,4-0.7c6.1-4.8,6.2-4.9,11.9-0.2c0.5,0.4,1,0.8,2.2,0.8c-0.6-1.5-1.3-2.9-1.7-3.8
			c2.7-2,5.2-3.9,8-5.9c7.1,2.9,8.9,1.7,8.9-6.6c4.2-4.6,4.4,2.2,6.9,2c3.5-0.9,7.1-1.5,10.6-2c3.5-0.6,7.2-0.8,10.6-1.8
			c2.8-0.8,5.4-2.5,8.2-3.5c0.9-0.3,2.2,0.2,4.1,0.5c-1.9,2.5-3.1,4.1-4.3,5.7c0.1,0.4,0.2,0.8,0.3,1.2c2.3-0.8,4.9-1.1,6.7-2.5
			c2.1-1.6,3.4-1.8,4.8,0.4c-8.7,4.7-17.4,9.4-26.1,14.1c-3.5,1.5-7,2.9-10.5,4.4c-46.4,20.3-94.5,32.5-145.6,28.6
			c-25.4-2-49.6-7.6-69.3-25.2c-3.7-5.9-7.6-11.8-11.2-17.9C744.6,505.5,744.6,503.6,744.3,502.1z"/>
		<path class="st29" d="M993.1,597.7c-1.2-0.2-2.7-0.9-3.6-0.5c-7,2.8-14.3,2.7-21.6,2.5c-5.9-0.1-11.7-1-17.6-1.3
			c-4-0.2-8.1,0-12.8,0c-0.1-0.1-0.6-1.2-1.4-3c-4.2,6.3-9.8,3.4-15,3.6c-6.1,0.2-12.2,1.2-18.3,1.3c-3.9,0.1-7.9-0.7-11.7-1.6
			c-1.8-0.4-3.2-2.1-4.9-3.3c0.2-0.4,0.5-0.8,0.7-1.1c4.8-0.9,9.5-1.8,14.3-2.7c0-0.2,0-0.5,0-0.7c-0.8-0.1-1.5-0.2-2.3-0.3
			c18.6-5,37.2-10,55.9-15.1c-0.3,1.2-0.5,2.3-1,4.1c4.9,0,10.4,1.3,14.9-0.3c8.2-2.8,15.7-7.4,23.6-11.2c1.9-0.9,4.1-2.4,6-2.2
			c6.5,0.7,11.9-2.6,17.7-4.4c2.2-0.7,4.5-0.8,6.6-1.7c3.4-1.4,6.6-4.5,9.9-4.6c7.4-0.1,12.5-4.2,18.2-7.8c1.9-1.2,4.2-1.9,6.3-2.8
			c2.6-1.1,5.1-2.4,7.8-3.3c5-1.7,10-3.6,15.1-4.7c3.1-0.7,6.8,0.4,7.2-4.6c0.1-0.8,1.3-2,2.2-2.2c4.8-1.4,9.7-2.6,13.4-3.6
			c2.9,1.8,5,3,7.1,4.2c-19,12.4-37.9,24.8-56.9,37.2c-1.6,0.8-3.2,1.6-4.8,2.4c-16.7,8.5-33.4,17.1-50.1,25.6
			C996.5,596.5,994.8,597.1,993.1,597.7z"/>
		<path class="st30" d="M1110,530.7c-2.1-1.2-4.2-2.5-7.1-4.2c-3.7,1-8.6,2.1-13.4,3.6c-0.9,0.3-2.2,1.4-2.2,2.2
			c-0.4,5-4.1,3.8-7.2,4.6c-5.1,1.2-10.1,3-15.1,4.7c-2.7,0.9-5.2,2.2-7.8,3.3c-2.1,0.9-4.4,1.6-6.3,2.8c-5.6,3.6-10.7,7.7-18.2,7.8
			c-3.3,0-6.5,3.2-9.9,4.6c-2.1,0.9-4.4,1-6.6,1.7c-5.8,1.7-11.2,5-17.7,4.4c-1.9-0.2-4.1,1.2-6,2.2c-7.9,3.8-15.4,8.4-23.6,11.2
			c-4.5,1.6-10,0.3-14.9,0.3c0.4-1.7,0.7-2.9,1-4.1c0.8-0.3,1.5-0.6,2.2-0.8c6.5,0.3,11.8-2.7,16.9-6.2
			c14.1-7.1,28.6-13.7,42.3-21.5c20.1-11.4,39.7-23.7,59.5-35.6c1-0.6,2-1.1,3-1.7c-1.6,2.1-2.7,4.8-4.7,6.1
			c-13.9,8.3-28.1,16.3-42.1,24.5c-1.1,0.6-1.6,2.2-2.4,3.3c1.2,0.7,2.3,1.9,3.5,2c8.2,0.7,14.5-2.4,18.7-9.5c0.4-0.7,1-1.8,1.5-1.8
			c8.7-0.5,13.4-8.9,21.4-10.8c1.4-0.3,2.7-1.4,4.1-1.8c7.5-2.1,15.2-3.6,22.4-6.4c5.6-2.2,11.4-4.6,16-9.2c2.3-2.3,5.7-3.4,8.6-5.1
			c3.6-2.1,7.1-4.4,10.8-6.3c1.4-0.8,3.8-1.9,4.7-1.3c4.2,2.8,6.2,1.5,7.4-2.9c0.3-1.1,1.2-1.9,1.3-2c5.6-0.6,10.4-1.1,15.2-1.6
			c4.3-0.5,7.2,1.6,9.6,4.9c-3.6,1.8-7.2,3.6-10.8,5.5c-0.5,0.3-0.8,1-1.2,1.5c-3,1.9-6,3.9-9.1,5.8c-5.7,3.4-11.3,6.7-17,10.1
			C1128,520.1,1119,525.4,1110,530.7z"/>
		<path class="st29" d="M974.1,568.6c-5.1,3.5-10.4,6.5-16.9,6.2C962.8,572.8,968.5,570.7,974.1,568.6z"/>
		<path class="st31" d="M1163,355.1c4.4,0.4,8.8,0.9,13.1,1.3c2.6,5,8.3,2,12.4,4.7c-2.4,3.5-4.9,7-7.4,10.6c4.3,4.3,5.3-1,8.2-3
			c0.7,1.9,1.4,3.4,1.9,4.8c9.5,0,19.1,0,28.9,0c-6.5,0.5-12.8,0.9-19.1,1.4c-21,2.3-41.4,7.5-61,15.3
			c-16.8,6.7-33.1,14.5-49.4,22.3c-9.3,4.4-18.3,9.7-27.4,14.7c-0.4-3.2-2.2-1.6-3.5-0.9c-4.4,2.5-8.8,5.2-13.1,7.8
			c0.2-3,0.5-5.9,0.5-8.8c0.1-8.2,0-8.2-8-8.3c-1.6,0-3.8,0.2-4.8-0.7c-3.5-3.5-6.7-2.5-9.8,0.4c-3.5-5.8-3.5-5.8-2.5-10.8
			c1.1-0.6,2.1-1.3,3.2-1.9c1.1,1.4,2.1,2.7,2.7,3.5c1.6-2.7,2.5-4.4,3.6-6c0.7-1,1.8-1.8,2.7-2.7c1.7-1,3.3-1.9,5-2.9
			c0.5,1.2,0.8,2.6,1.6,3.5c0.8,0.8,2.4,1.5,3.4,1.2c1-0.2,2.3-1.5,2.5-2.6c0.4-2,0.2-4.1,0.3-6.2c0.7-0.4,1.4-0.7,2.1-1
			c0.7,1.1,1.2,2.3,2,3.3c0.8,1,2.4,2.7,2.8,2.5c1.3-0.7,3-2.1,3-3.2c0-1.8-1.2-3.6-1.8-5.5c18.7-7.5,37.1-16,56.2-22.2
			c15.2-4.9,31.2-7.1,46.9-10.4C1159.7,355,1161.4,355.2,1163,355.1z"/>
		<path class="st32" d="M1021.9,405.8c-1,5-1,5,2.5,10.8c3.1-2.8,6.3-3.9,9.8-0.4c0.9,0.9,3.1,0.7,4.8,0.7c8,0.1,8.1,0.1,8,8.3
			c0,2.9-0.3,5.9-0.5,8.8c4.3-2.6,8.7-5.2,13.1-7.8c1.3-0.7,3.1-2.3,3.5,0.9c-7.7,5-15.4,9.9-23,14.9c-1.7,0.9-3.5,1.8-5.2,2.8
			c-11.6,7-23.2,14.1-34.8,21.1c-2.5,0.4-5,0.6-7.4,1.3c-4.1,1.1-8.1,2.7-12.2,3.6c-3.5,0.8-5.7-0.6-5.5-4.8
			c0.2-3.7,0.6-7.2-2.8-10.5c-2.9-2.7-1-5.9,3.1-6.7c1.1-0.2,2.9-0.6,3-1.2c0.6-4,0.9-8,1.3-12.9c-3.7,5.4-8.1,7.8-13.7,8
			c8.2-6,16.1-12.2,24.5-17.8C1000.8,418.4,1011.5,412.2,1021.9,405.8z"/>
		<path class="st33" d="M1004.1,253.1c1.3,1.2,2.6,2.3,3.5,3.1c-1,1.9-2.5,4.1-2.2,4.2c4.2,3.4,1.2,8,1.8,10.8
			c2.2,0.7,3.8,1.2,4,1.3c2.5,0,3.9,0,5.3,0c0.2,0.5,0.5,1,0.7,1.4c-2.4,1.5-4.8,3-7.2,4.6c-0.1-0.2-0.3-0.5-0.4-0.8
			c-4.7,3.5-9.5,6.9-14,10.5c-1.1,0.9-1.5,2.6-2.3,3.9c-11.7,9.6-23.4,19.3-35,28.9c-1.2,0.4-2.8,0.5-3.7,1.4
			c-2.3,2.4-4.2,5.1-6.3,7.6c-4.4-3.2-8.7-6.4-12.2-9c-0.3-5.1-0.6-9.6-0.8-14.1c4.9-5.6,9.2-11.8,14.7-16.7
			c9.7-8.6,19.7-16.8,30.3-24.2C987.5,260.9,996.1,257.4,1004.1,253.1z"/>
		<path class="st34" d="M1037.1,323.1c2.6-1,5.2-2,7.8-3.1c2.8,1.1,5.6,2.3,9.2,3.7c-2.8,1.6-4.3,4.1-8.1,1.3c-1.3-1-5,0.1-6.8,1.3
			c-2.9,2.1-5,5.3-7.8,7.7c-1.4,1.2-3.6,1.7-5.4,2.6c-1.1,0.5-2,1.5-3.1,2c-1.2,0.5-2.5,0.6-3.1,0.8c-1.2,2.3-2.7,4.5-3.6,7
			c-0.3,0.9,0.6,2.3,1.3,4.5c-2.7-0.2-6-0.2-9.2-0.7c-0.5-0.1-0.6-2.2-0.9-3.4c-1.9,0.1-4,0.2-7.6,0.4c2.5,0.6,3.5,0.9,4.6,1.2
			c0.1,0.4,0.1,0.7,0.2,1c-3,0.8-6,1.6-9.8,2.7c3.7,2.6,2.5,4.7-0.4,6.6c2.3,2.1,2.5,7.8,6.6,4c1.7,1.8,3.4,3.5,5,5.1
			c-1.2,0.8-2.5,1.5-3.8,2.3c-4.3-0.6-8.6-1.7-12.9-1.8c-1.9,0-3.8,1.9-5.8,2.9c0.8,1.4,1.6,2.8,2.5,4.3c-1,0.1-2.4,0.2-3.5,0.3
			c0,1.6,0,3,0,3.2c4.4-1.7,8.8-3.5,13.3-5.3c-22,13.4-43.5,27.6-63.2,44.3c-7.1,6-14.1,12-21.2,18c-3.1-1.8-4.1-4.4-2.8-7.6
			c2.4-6.2,5-12.3,7.5-18.4c0.3-0.3,0.7-0.7,1-1c7.7-7,15.3-13.9,23-20.9c9-7.4,17.9-14.7,26.9-22.1c7.7-5.3,15.3-10.7,23-16
			c6.7-4,13.3-8,20-12C1019.1,333,1028.1,328.1,1037.1,323.1z M1016.6,337.9c-0.4-0.1-0.9-0.3-1.3-0.5c-1.8,1.3-3.5,2.6-5.2,3.9
			c0.1,0.5,0.1,1,0.2,1.5c1.8,0,4,0.6,5.2-0.2C1016.5,342,1016.3,339.6,1016.6,337.9z"/>
		<path class="st35" d="M966,442.9c5.6-0.2,10-2.6,13.7-8c-0.5,4.9-0.7,8.9-1.3,12.9c-0.1,0.5-1.9,1-3,1.2c-4.2,0.7-6,4-3.1,6.7
			c3.4,3.2,3,6.8,2.8,10.5c-0.2,4.2,1.9,5.6,5.5,4.8c4.1-0.9,8.1-2.5,12.2-3.6c2.4-0.6,4.9-0.9,7.4-1.3
			c-12.8,6.6-25.4,13.6-38.4,19.8c-10.3,4.9-21.1,8.7-31.6,13c-12.6,3-25.2,6.1-37.9,9.1c12.2-11.9,24.1-24.3,36.8-35.7
			c10.8-9.8,22.6-18.5,34-27.6C964,443.9,965,443.5,966,442.9z"/>
		<path class="st36" d="M884.2,509.8c-3,0.4-6,0.7-9,1.1c-0.3-12.7-0.7-25.3-1.1-38c-0.2-1.7-0.8-3.5-0.7-5.2
			c0.8-8.9,1.8-17.8,2.7-26.7c0.5-2.4,1-4.8,1.5-7.2c1.8-8.3,3.6-16.5,5.4-24.8c3.3-10,6.7-20,10-30c4-8.7,8-17.3,11.9-26
			c0.8-0.2,9.5,0.6,9.9,1c0.9,1.1,1.5,2.4,1.9,3c-3.2,0.4-7.1,0.3-7.2,1c-0.5,2.4-0.4,5.5,0.7,7.7c1.5,3.1,4.5,2.6,7.3,1.2
			c1-0.5,2.3,0,3.5,0c-1.7,2.7-3.4,5.5-5.1,8.2c-3.8,3.6-3.7-2.8-7.4-2.3c0.2,3.4,0.3,7,0.5,10.5c0.8-0.1,1.6-0.1,2.4-0.2
			c-7.2,16.6-15.2,32.9-21.5,49.9c-8.7,23.5-12.3,48.2-13.4,73.3c0,1.1,0.3,2.2,0.5,3.6C879.7,509.8,882,509.8,884.2,509.8z"/>
		<path class="st37" d="M1011,302c4.7-3,9.4-6.1,14.1-9.1c2.3-1.3,4.7-2.5,7.1-3.8c3.9-1.7,7.7-3.5,11.6-5.2c1.2,0.2,2.8,1,3.7,0.6
			c4.7-2.2,7,1.7,10.7,3.2c-10.1,5-15.2,12.4-15.2,23.5c0,3.9,0.9,9.9-6.2,10.1c0.2,0.6,0.3,1.1,0.5,1.7c-9,5-18,10-27,15
			c-0.9-4.3-1.8-8.7-2.9-14.2c-3.7-1.4-1.2-4.8,0.1-8.2c1.1-3,1.7-6.1,2.5-9.2c-0.1,0-0.1-0.1-0.2-0.1
			C1010.1,304.9,1010.5,303.4,1011,302z"/>
		<path class="st38" d="M921.2,366.8c-1.2,0-2.6-0.5-3.5,0c-2.9,1.4-5.8,1.9-7.3-1.2c-1.1-2.2-1.2-5.2-0.7-7.7c0.2-0.7,4-0.6,7.2-1
			c-0.3-0.6-1-1.9-1.9-3c-0.4-0.5-9.1-1.2-9.9-1c1-2.3,2.1-4.6,3.1-6.9c7-10.6,13.9-21.3,20.9-31.9c1.7-2.6,4-4.8,5.9-7.2
			c0.3,4.5,0.5,9.1,0.8,14.1c3.5,2.6,7.9,5.8,12.2,9c-0.6,1.4-1.3,2.8-1.9,4.1C937.9,345.1,929.5,356,921.2,366.8z"/>
		<path class="st2" d="M996.1,373.8c-4.5,1.8-8.9,3.6-13.3,5.3c0-0.2,0-1.6,0-3.2c1.1-0.1,2.5-0.2,3.5-0.3c-0.9-1.6-1.7-3-2.5-4.3
			c1.9-1,3.8-3,5.8-2.9c4.3,0.1,8.6,1.1,12.9,1.8C1000.3,371.3,998.2,372.6,996.1,373.8z"/>
		<path class="st39" d="M1159,316.9c-14.7,2.4-29.3,4.8-44,7.2c-2.3,0.4-4.5,0.7-6.8,1.1c-0.7-0.1-1.3-0.1-2-0.2
			c-0.1-0.3-0.2-0.6-0.2-0.9c6.9-1.7,13.7-3.8,20.6-4.9c10.7-1.7,21.6-2.8,32.3-4.1C1159,315.7,1159,316.3,1159,316.9z"/>
		<path class="st38" d="M911.5,383c-0.8,0.1-1.6,0.1-2.4,0.2c-0.2-3.5-0.3-7.1-0.5-10.5c3.8-0.5,3.6,6,7.4,2.3
			C914.6,377.7,913,380.4,911.5,383z"/>
		<path class="st32" d="M1055,387.9c0.7,1.8,1.9,3.7,1.8,5.5c0,1.1-1.7,2.5-3,3.2c-0.4,0.2-2-1.5-2.8-2.5c-0.8-1-1.4-2.2-2-3.3
			C1051,389.9,1053,388.9,1055,387.9z"/>
		<path class="st32" d="M1047,391.9c-0.1,2.1,0.2,4.2-0.3,6.2c-0.2,1-1.5,2.4-2.5,2.6c-1,0.2-2.6-0.4-3.4-1.2
			c-0.9-0.8-1.1-2.3-1.6-3.5C1041.7,394.6,1044.3,393.3,1047,391.9z"/>
		<path class="st40" d="M946.2,334.2c0.6-1.4,1.3-2.8,1.9-4.1c2.1-2.6,4-5.2,6.3-7.6c0.8-0.9,2.4-1,3.7-1.4
			C954.2,325.4,950.2,329.8,946.2,334.2z"/>
		<path class="st32" d="M1034.1,398.8c-0.9,0.9-2,1.6-2.7,2.7c-1.1,1.5-1.9,3.2-3.6,6c-0.6-0.8-1.7-2.1-2.7-3.5
			C1028.1,402.2,1031.1,400.5,1034.1,398.8z"/>
		<path class="st41" d="M985.1,710.6c-12.1,2.9-24.3,5.9-36.4,8.7c-1.7,0.4-3.6,0.2-5.4,0.2c0.1-0.9,0.2-1.8,0.2-3
			c-1.9,0.2-3.3,0.4-4.4,0.6c-1.1-2.7-2-5.1-3.4-8.7c-2.6,3.8-4.4,6.4-6.4,9.2c-0.4-3.2-0.7-5.7-1.1-9c-2.7,4.2-4.8,7.4-6.8,10.4
			c4.9,0,9.9,0,14.9,0c-0.3,0.4-0.7,0.9-1,1.4c-7.7,0.3-15.3,0.7-23,1c1-0.7,2-1.2,2.9-2c1.1-1,2.7-2,2.9-3.2
			c0.4-2.8,0.1-5.7,0.1-8.6c7.4-3.3,7.4-3.3,4.7-9.9c2.2-0.2,4.2-0.3,6.3-0.5c0-0.2,0-0.4,0-0.6c-2.1-0.1-4.2-0.3-6.3-0.4
			c13.3-1.9,26.6-3.6,39.8-5.9c7.6-1.4,15.1-3.9,22.6-5.9c26.4-7.3,51.5-17.7,75.7-30.5c2.6-1.4,5.3-2.5,7.9-3.7
			c0.9,0.8,1.9,1.6,2.9,2.4c-2.1,2.3-3.8,4.2-5.7,6.2c-1.1-0.9-1.9-1.6-2-1.7c-4,1.3-7.2,2.3-9.3,3c0,3.8,0,6.6,0,7.9
			c-2.9,1.4-5.2,2-6.7,3.4c-4.4,4.5-8.5,9.2-12.5,14c-0.7,0.8-0.3,2.5-0.5,3.8c-8.7,4-17.2,8.3-26,12
			C1001.3,705,993.1,707.7,985.1,710.6z"/>
		<path class="st42" d="M922.9,696.5c2.1,0.1,4.2,0.3,6.3,0.4c0,0.2,0,0.4,0,0.6c-2.1,0.2-4.2,0.3-6.3,0.5c2.7,6.6,2.7,6.6-4.7,9.9
			c0,2.9,0.3,5.8-0.1,8.6c-0.2,1.2-1.8,2.2-2.9,3.2c-0.9,0.8-1.9,1.3-2.9,2c-16.9-0.3-33.5-2.9-49.9-7c2.6-2.5,0.3-4.8-0.3-7.1
			c-0.3-1-1.3-2.7-1-2.9c3.6-2.7,7.3-5.4,11.2-7.8c1.1-0.7,2.7-0.7,4.1-1C891.8,696,907.3,696.3,922.9,696.5z"/>
		<path class="st43" d="M876.2,695.7c-1.4,0.3-3,0.3-4.1,1c-3.8,2.4-7.6,5-11.2,7.8c-0.2,0.2,0.7,1.9,1,2.9c0.7,2.3,2.9,4.6,0.3,7.1
			c-8.7-3.3-17.6-6.4-26.1-10.1c-4.8-2.1-9.2-5.2-13.8-7.8c-3.2-3.6-6.5-7.2-9.7-10.8c-1.9-2.2-2.8-4.4,0.6-6
			c16.9,7.5,34.5,12.4,52.9,14.4C869.5,694.6,872.9,695.2,876.2,695.7z"/>
		<path class="st44" d="M908.3,346.1c-1,2.3-2.1,4.6-3.1,6.9c-4,8.7-8,17.3-11.9,26c-3,2.2-6,4.5-9.2,6.9c-1.9-3.1-3.9-5.1-7.6-2.3
			c-0.5,0.4-3.4-1-3.9-2.1c-0.8-1.8-0.3-4.1-0.5-6.2c-0.2-2.2,0.2-4.8-0.9-6.6c-1.7-2.9-4.2-5.3-7.4-9.1c-3.1,14.2-6,27.8-9.2,42.4
			c-0.2-2.1-0.3-3.2-0.4-4.3c0.7-5.5,1.4-11.1,2.1-16.6c3.3-11.2,6.3-22.6,10.1-33.7c2.4-7,5.8-13.7,8.7-20.5
			c0.7,0.1,1.8,0.6,1.9,0.4c2-3.3,4-6.6,5.6-10.1c0.5-1.1-0.1-2.7-0.2-4c0.2-0.4,0.4-0.7,0.7-1.1c0.5-0.2,1-0.3,1.3-0.6
			c2-2,5.2-3.9,6.7-1.3c1.3,2.2,0.8,6.6-0.7,8.9c-2.4,3.9-4.5,12-2.4,16.2c0.6,1.2,2,2,3.1,2.8c0.9,0.7,2.6,1,2.7,1.7
			c0.6,5.4,4.3,4.1,7.8,4.2C903.8,344,906,345.3,908.3,346.1z"/>
		<path class="st45" d="M1193,488c12-2.7,24-5.4,36.1-7.9c1.1-0.2,2.5,0.6,3.7,0.9c9.8,13.2,14.5,28.4,16.9,44.2
			c1.8,11.9,2.3,24.1,3,36.2c0.2,3.8-0.6,7.6-0.9,11.4c-1.4-1.7-2.7-3.5-4.1-5.1c-1-1.1-2.2-2.5-3.5-2.8c-6-1.3-13.2-10.1-12.8-15.7
			c-2.5-0.8-4.8-1.7-7.6-2.6c-0.2,1.7-0.4,3.3-0.7,5.8c-2.4-1.2-4.3-2.3-6.6-3.4c-1.1,1.2-2.3,2.5-3.5,3.9c-1-6.2-1.8-12.4-3.2-18.5
			C1206.2,518.1,1202.3,502.1,1193,488z"/>
		<path class="st46" d="M1213,552.8c1.2-1.3,2.4-2.6,3.5-3.9c2.3,1.2,4.2,2.2,6.6,3.4c0.3-2.4,0.5-4.1,0.7-5.8
			c2.7,0.9,5.1,1.7,7.6,2.6c-0.3,5.6,6.8,14.4,12.8,15.7c1.3,0.3,2.5,1.7,3.5,2.8c1.5,1.6,2.8,3.4,4.1,5.1c-0.7,5.7-1.3,11.3-1.9,17
			c-1-0.4-1.9-1-3-1.2c-2.1-0.3-4.3-0.1-6.3-0.6c-5.7-1.4-11.2-5-17.4-1.7c-0.7,0.3-2.5-0.4-3-1.2c-2.3-3.3-6.8-5.5-5.3-10.7
			c0.3-1.1-0.5-2.5-0.8-3.7C1213.7,564.8,1213.3,558.8,1213,552.8z"/>
		<path class="st47" d="M1214,570.8c0.3,1.2,1.1,2.6,0.8,3.7c-1.4,5.2,3,7.4,5.3,10.7c0.5,0.8,2.4,1.5,3,1.2
			c6.2-3.3,11.7,0.3,17.4,1.7c2,0.5,4.2,0.3,6.3,0.6c1,0.2,2,0.8,3,1.2c-1.3,7-2.7,14-4.1,21c-3.4-0.6-6.9-1.2-9.8-1.7
			c-1.4,0.8-3.3,2.4-4,2c-1.8-1.1-3-3-5.3-5.5c-0.3,3-0.4,4.3-0.7,6.5c-1.8-0.8-3.3-1.3-4.4-2.2c-0.2-0.2,0.8-2,1.6-3.7
			c-1.6-0.4-3.2-1.2-4.5-1c-3.7,0.7-5.2-1.2-5.9-4.3C1213.3,590.7,1213.7,580.8,1214,570.8z"/>
		<path class="st48" d="M1212.9,600.7c0.7,3.1,2.2,5,5.9,4.3c1.4-0.2,2.9,0.6,4.5,1c-0.7,1.7-1.8,3.5-1.6,3.7
			c1.1,0.9,2.6,1.4,4.4,2.2c0.2-2.2,0.4-3.5,0.7-6.5c2.3,2.5,3.5,4.5,5.3,5.5c0.7,0.4,2.6-1.2,4-2c2.8,0.5,6.3,1.1,9.8,1.7
			c-1.7,5.1-3.4,10.3-5,15.4c-0.7,2.2-1.3,4.3-2,6.5c-0.6-1.6-1.1-3.1-1.5-4c-4,0.9-7.5,1.8-9.4,2.2c-3.4-1.5-5.7-2.8-8-3.5
			s-4.9-0.8-8.2-1.3c-0.7,1.3-1.7,3.5-2.7,5.6c-0.3-0.3-0.7-0.6-1-1C1209.6,620.7,1211.2,610.7,1212.9,600.7z"/>
		<path class="st49" d="M1233,646.8c-3,5.3-6,10.7-9.1,16c-3.6,0.1-6.5-6.3-11.1-0.5c0-2,0-3.3,0-4.6c-0.2-0.1-0.5-0.1-0.8-0.2
			c-0.8,1.7-1.6,3.3-3,5.9c-2.5-3.3-4.9-6.5-7.2-9.6c1-3.3,2-6.7,3-10c1.1-0.5,2.2-1.5,3.4-1.6c4.4-0.2,8.9,0,13.3-0.2
			c2.5-0.1,5-0.7,7.6-1.1c-0.1-0.4-0.1-0.7-0.2-1.1c2,0.7,3.9,1.4,5.9,2.1C1234.3,643.4,1233.6,645.1,1233,646.8z"/>
		<path class="st50" d="M1234.9,641.8c-2-0.7-3.9-1.4-5.9-2.1c0.1,0.4,0.1,0.7,0.2,1.1c-2.5,0.4-5,1-7.6,1.1
			c-4.4,0.2-8.9,0-13.3,0.2c-1.2,0.1-2.2,1-3.4,1.6c1-4.3,2-8.7,3-13c0.3,0.3,0.7,0.6,1,1c1-2.1,2.1-4.3,2.7-5.6
			c3.3,0.5,5.8,0.6,8.2,1.3c2.4,0.7,4.6,2,8,3.5c2-0.5,5.4-1.3,9.4-2.2c0.3,0.9,0.9,2.4,1.5,4
			C1237.5,635.7,1236.2,638.7,1234.9,641.8z"/>
		<path class="st51" d="M1159,316.9c0-0.6,0-1.2,0-1.8c13,0.4,26,0.8,38.9,1.2c0,0.5,0,1,0,1.6c-0.8,0.1-1.5,0.3-2.3,0.4
			C1183.4,317.8,1171.2,317.3,1159,316.9z"/>
		<path class="st52" d="M842.1,335c1.1-2.3,2.2-4.6,3.3-7c0.1,1,0.4,2.1,0.3,3.1c-0.4,4.2-0.9,8.3-1.5,12.5c-0.2,1.5-0.4,3-1.1,4.3
			c-2.2,3.8-4.2,7.4-3.6,12.2c0.2,1.9-1.7,4.1-3.1,7.1c0,2.7,0,6.7,0,11.6c2,1.4,3.7,3.4,1.4,7.7c-2.5,4.8,3,7.4,5.2,10.8
			c0.4,0.7,3.6-0.2,5.4-0.5c1.3-0.2,2.5-0.6,3.8-0.9c-0.1,1.8-0.1,3.6-0.3,5.5c-0.9,10.3-2.4,20.7-2.5,31
			c-0.1,10.5,0.9,21.1,1.9,31.7c0.5,5.5,2.1,11,3.3,16.4c0,0.2,1.1,0.1,1.6,0.1c0.6,2.1,1.1,4.1,1.7,6.2c0.5,3.8,1.3,7.6,1.4,11.4
			c0,2.1-0.4,5.6-1.7,6.2c-6.5,3.3-14.2,0.8-18.9-5.5c-2-2.6-3.8-5.3-5.9-7.7c-0.4-0.5-1.7-0.3-2.7-0.4c-0.3,0-0.6-0.1-0.9-0.1
			c-1.3-5.7-2.7-11.3-4-17c-0.7-10.4-1.5-20.8-2.2-31.2c0-0.6-0.5-1.2-0.7-1.8C822.2,404.3,827.8,368.9,842.1,335z"/>
		<path class="st53" d="M822.4,440.8c0.2,0.6,0.7,1.2,0.7,1.8c0.8,10.4,1.5,20.8,2.2,31.2c0,0.6-0.1,1.3-0.1,2
			c-0.3,0.1-0.5,0.1-0.8,0.2c-0.6-2.1-1.1-4.2-1.7-6.4c-3.9,0-7.9-0.3-11-3.7c-2.3-2.6-4.9-5-7.4-7.3c-1.1-1-2.4-2.4-3.6-2.4
			c-5.5,0-11.1,0.4-16.5,0.7c-0.4-0.8-0.5-1.3-0.8-1.7c-0.8-1.3-1.8-3.7-2.6-3.6c-2.3,0.2-3.4,1.5-2.7,4.5c0.9,3.9,0.9,7.9,1.3,12.4
			c-0.9-0.7-1.4-1.1-1.9-1.5c-2.9-24.7-2-49.1,4.7-73.1c1-3.6,2.1-7.2,3.1-10.9c5.4-0.6,9,2.4,9,7.8c0,4.8,0,9.6,0,14.5
			c0,2.8,0.8,5,4.3,4.8c3.3-0.1,3.3,2,3.8,4.6c0.5,2.7,1.8,5.4,3.3,7.8c4.2,6.8,8.7,13.4,13,20c-0.3,0.4-0.7,0.7-1,1.1
			c1-0.2,2-0.5,3.1-0.7c0,3.5,0,7.1,0,10.6c0.5,0,1,0,1.5,0C822.4,449.2,822.4,445,822.4,440.8z"/>
		<path class="st54" d="M856.4,480.7c-0.6,0-1.6,0-1.6-0.1c-1.2-5.5-2.8-10.9-3.3-16.4c-1-10.5-2-21.1-1.9-31.7
			c0.1-10.4,1.6-20.7,2.5-31c0.2-1.8,0.2-3.6,0.3-5.5c1-5.3,2-10.6,3-15.9c0-0.1,0.3-0.2,0.3-0.2c0.2,0.4,0.5,0.7,0.7,1.1
			c-0.7,5.5-1.4,11.1-2.1,16.6c-3.9,23.8-4.1,47.5,0.2,71.2C855.1,472.8,855.7,476.8,856.4,480.7z"/>
		<path class="st0" d="M882.3,313.1c0.1,1.4,0.8,3,0.2,4c-1.6,3.5-3.6,6.8-5.6,10.1c-0.1,0.2-1.2-0.3-1.9-0.4
			C877.5,322.2,879.9,317.7,882.3,313.1z"/>
		<path class="st55" d="M1153.9,504.8c3-1.9,6-3.9,9.1-5.8c1.3,0,2.6,0,3.9,0c1.4,2.3,2.7,4.6,4.1,6.9c-1.2,0.3-2.4,0.6-2.2,0.6
			c-3.2,4.4-5.8,7.9-8.2,11.5c-0.7,1-1.1,2.3-1.5,3.5c-0.3,0.8-0.1,1.9-0.6,2.5c-2.6,3.2-5.7,6-8,9.3c-1.5,2.1-1.9,4.9-2.8,7.4
			c-8.2,8-16,16.3-24.5,23.9c-17.2,15.4-36.3,28.4-56.1,40.3c-1.2,0.7-2.7,1.1-4,1.7c0.5-1,1-1.9,1.9-3.7c-7.5,0-14.3,0-21.1,0
			c-0.4,0-0.8,0.6-1.3,0.7c-2.1,0.7-4.2,1.8-6.4,1.9c-4.3,0.1-8.6-0.1-12.2,3c-0.9,0.8-2.5,0.9-3.8,1c-7.4,0.7-14.8,1.3-22.1,2.1
			c-1.5,0.2-2.9,1.4-4.4,1.8c-2,0.5-4.4,1.2-6.2,0.7c-2.8-0.9-2.7-3.5-1.5-5.8c1.5-2.9,0.8-5-1.9-6.6c3-1.4,6-2.8,8.9-4.2
			c1.7-0.6,3.4-1.2,5.1-1.8c1.8,1,3.6,2.2,5.5,2.9c3.1,1.2,6.5,3.1,9.5,2.7c7.5-1,14.8-3.2,22.2-5c5.2-1.3,10.4-3.5,15.7-4
			c5.1-0.5,10.1-0.3,13.7-4.9c1.9-2.4,4-4,7.7-2.3c3.3,1.5,8.5-2.2,10.2-5.5c1.1-2.2,2.7-4.7,4.8-5.8c5.8-2.8,12-4.8,17.9-7.5
			c6.9-3.1,14.4-5.5,20.3-10c5.5-4.1,9.5-10.3,13.7-15.9c2.4-3.2,4-7.1,5.8-10.7c2.4-4.9,5.2-9.8,6.9-14.9
			C1153.2,511.8,1156.3,508.7,1153.9,504.8z"/>
		<path class="st56" d="M984.2,601.9c2.8,1.6,3.5,3.7,1.9,6.6c-1.2,2.3-1.3,4.9,1.5,5.8c1.8,0.6,4.1-0.2,6.2-0.7
			c1.5-0.3,2.9-1.6,4.4-1.8c7.4-0.8,14.8-1.4,22.1-2.1c1.3-0.1,2.9-0.3,3.8-1c3.6-3.1,7.9-2.9,12.2-3c2.1-0.1,4.2-1.2,6.4-1.9
			c0.5-0.2,0.8-0.7,1.3-0.7c6.8,0,13.6,0,21.1,0c-0.9,1.8-1.4,2.7-1.9,3.7c-7.8,4.4-15.6,8.9-23.5,13.3c-1.4,0.8-3,1.1-4.6,1.6
			c-1.6-0.4-3.3-0.8-4.9-1.2c-2-0.4-4.7-1.8-5.9-1c-5.4,3.6-10.8,5.2-17.1,3.3c-0.8-0.2-2,0.2-2.9,0.4c-5.4,1.5-10.7,3.5-16.1,4.6
			c-4.2,0.9-8.6,1.3-12.8,1c-4.1-0.3-8.3-3.2-12.2-2.6c-4.2,0.7-8.2-0.7-11.9-0.1c-9.5,1.4-16.9-5.6-25.9-5.2c1-0.3,2-0.7,3-1
			c13.8-4.3,27.7-8.6,41.5-13C974.6,605.4,979.4,603.5,984.2,601.9z"/>
		<path class="st57" d="M930.2,498.7c10.6-4.3,21.3-8.1,31.6-13c13-6.2,25.6-13.2,38.4-19.8c11.6-7,23.2-14.1,34.8-21.1
			c1.7-1,3.4-1.9,5.2-2.8c-0.7,3.9-3.1,5.8-6.8,7.1c-2.3,0.8-4.1,3-6.1,4.5c0.2,0.3,0.5,0.6,0.8,0.9c3.2-0.3,6.5-0.5,9.7-0.8
			c-0.1-0.4-0.3-0.7-0.4-1.1c2.2-0.9,4.3-1.7,5.8-2.3c2.1,1.9,3.5,3.2,4.7,4.2c2.8-3.7,5.1-6.8,7.8-10.5c1.5,2.9,2.5,4.8,3.6,6.7
			c4.1-2.2,6.3-1.4,6.8,2.5c0.4,3.5,0.8,7.1,1.1,10.7c0.3,0.7,0.7,1.3,1,2c-9,5.9-18,11.9-27,17.8c-9.2,5.4-18.5,10.9-27.7,16.3
			c-1.7,1-3.5,1.8-5.2,2.7c-1.5-2.2-2.7-2-4.8-0.4c-1.8,1.4-4.5,1.7-6.7,2.5c-0.1-0.4-0.2-0.8-0.3-1.2c1.2-1.6,2.5-3.2,4.3-5.7
			c-1.9-0.2-3.1-0.8-4.1-0.5c-2.8,1-5.4,2.7-8.2,3.5c-3.4,1-7.1,1.2-10.6,1.8c-3.6,0.6-7.2,1.1-10.6,2c-2.5,0.3-2.6-6.6-6.9-2
			c-3.1-1.6-6.1-3.7-9.4-4.7c-3.2-1-6.7-1.3-10-0.9c-2.8,0.3-5.3,2.2-8.1,3.1C932.1,500.6,931,499.3,930.2,498.7z"/>
		<path class="st58" d="M829.3,490.9c0.3,0,0.6,0.1,0.9,0.1c2.6,7.3,5.3,14.6,7.9,21.9c-11.2-1.1-22.5-2.1-33.7-3.5
			c-5.4-0.7-10.7-2.3-16.1-3.5c-0.1-1,0-2-0.3-2.9c-2.2-6-4.4-12-6.7-18c1-1.6,2.1-3.1,3.7-5.7c3.4,1.9,7,3.8,10.3,5.6
			c2.5-0.1,7.7-1.1,8.1-0.1c1.9,4.4,3.5,1.6,5.1,0.4c2.3-1.7,3.8-1.9,4.5,1.4c0.2,1,0.9,1.9,1.3,2.6c4.2-0.3,8.1-0.6,12.3-0.9
			c0.4,1.1,0.8,2.3,1.2,3.5C828.4,491.5,828.9,491.2,829.3,490.9z"/>
		<path class="st59" d="M838.1,512.8c-2.6-7.3-5.3-14.6-7.9-21.9c0.9,0.1,2.2-0.1,2.7,0.4c2.1,2.5,4,5.1,5.9,7.7
			c4.7,6.3,12.3,8.8,18.9,5.5c1.3-0.7,1.8-4.1,1.7-6.2c-0.1-3.8-0.9-7.6-1.4-11.4c0.1,1,0.3,2,0.4,3c1.6,4.3,3.2,8.7,4.8,13
			c1,3,2,6,3,9C856.9,512.2,847.5,512.5,838.1,512.8z"/>
		<path class="st60" d="M866.3,511.8c-1-3-2-6-3-9c0.1-1.2-0.1-2.5,0.3-3.5c1-2.9-2.3-7.7,2.7-8.7c6.5-1.3,7.7-5.1,7-10.7
			c-0.2-1.6,0-3.3,0-5c0.3-0.7,0.6-1.3,1-2c0.3,12.7,0.7,25.3,1.1,38C872.3,511.2,869.3,511.5,866.3,511.8z"/>
		<path class="st61" d="M1171,505.9c-1.4-2.3-2.7-4.6-4.1-6.9c2.7-1.5,5.2-3.3,8-4.4c5.9-2.4,12-4.4,18.1-6.6
			c9.3,14.1,13.2,30.2,16.8,46.3c1.3,6.1,2.1,12.3,3.2,18.5c0.4,6,0.7,12,1.1,18c-0.4,10-0.8,19.9-1.2,29.9c-1.7,10-3.3,20-5,30
			c-1,4.3-2,8.7-3,13c-1,3.3-2,6.7-3,10c-2.7,7.7-5.3,15.3-8,23c-2,3.7-4,7.3-6,11c-7,2-11.7,6.3-14.1,13.3c-0.4,1.1-1.9,1.7-3,2.6
			c-0.6-1-1.6-1.9-1.8-3c-0.5-3.1,0-3.8,4.7-8.8c-1.7-0.7-4.9-1.3-4.9-2.1c-0.2-3.7,0-7.6,1-11.2c1.7-5.8,4.3-11.4,6.2-17.2
			c1.7-5.2,3.2-10.5,4.4-15.8c0.5-2.1-0.2-4.5-0.4-6.8c2.1-13.5,4.8-26.9,6.1-40.5c1.1-11.5,0.6-23.1,0.8-34.7
			c-0.4,0.2-0.8,0.4-1.1,0.6c-0.2-0.1-0.4-0.2-0.6-0.3c-0.8-17.2-4-33.9-10.2-50c-0.7-1.8-2-3.3-3-5
			C1171.7,507.9,1171.3,506.9,1171,505.9z"/>
		<path class="st62" d="M985.1,710.6c8-3,16.2-5.6,24.1-8.9c8.8-3.7,17.4-8,26-12c9.9-5.6,19.8-11.1,29.6-16.9
			c8.2-4.9,16.1-10.2,24.2-15.3c2.4,1,4.8,1.9,7.1,3c3.6,1.7,2.8,4.3,1.3,7c-0.1,0.2,0.6,0.7,0.8,1.1c-7,7.4-13.4,15.5-21.1,22.2
			c-10.8,9.5-22.6,17.9-33.9,26.8c-21.7,13.5-44.7,24-69.5,30.5c-0.8,0.2-1.6,0.3-2.4,0.4c-4.9,0.5-9.9,1.2-14.8,1.5
			c-11.8,0.8-23.6,1.5-35.3,2.2c-0.1-0.6-0.2-1.2-0.3-1.8c2.6-1.1,5.2-2.2,7.5-3.1c-1.9-2-3.8-4-5.8-5.9c1-0.9,2-1.8,3.2-2.9
			c-1.3-4.7-1.2-11.2-9.4-9c-0.2-1.3-0.3-1.7-0.2-1.9c3.5-4.3,14.9-5.9,19.4-2.6c2.3,1.6,14.2,0.4,16.9-2.1
			c3.9-3.5,7.8-4.7,12.9-2.1c1.5,0.8,5.6-0.3,6.2-1.6c2.5-5.2,5.8-4.8,10.3-3.2c1.3,0.5,3.3-1.1,5-1.8
			C986.2,713.1,985.6,711.9,985.1,710.6z"/>
		<path class="st63" d="M925.3,620.9c9-0.4,16.5,6.5,25.9,5.2c3.7-0.5,7.7,0.8,11.9,0.1c3.8-0.6,8,2.3,12.2,2.6
			c4.2,0.3,8.7-0.1,12.8-1c5.5-1.1,10.8-3,16.1-4.6c0.9-0.3,2-0.7,2.9-0.4c6.3,1.9,11.8,0.3,17.1-3.3c1.2-0.8,3.9,0.6,5.9,1
			c1.6,0.3,3.3,0.8,4.9,1.2c-18.2,8.5-36.2,17.3-55.8,22.2c-0.7-0.7-1.4-1.8-2.1-1.9c-6.6-0.4-13.2-0.5-19.8-0.8
			c-1.1,0-2.9,0.2-3.2-0.3c-3.3-6.6-8.8-7.1-15.1-6.1c-0.5,0.1-1-0.1-1.5-0.2c-4.8-1-9.6-2-14.3-2.9c-2.7-0.5-6.3-0.2-7.9-1.8
			c-5.1-5.3-11-2.6-16.6-2.6c-2.5,0-5-0.3-7.4-0.5c9.9-1.8,19.8-3.6,29.6-5.3C922.3,621.2,923.8,621.1,925.3,620.9z"/>
		<path class="st64" d="M1088.9,657.6c-8.1,5.1-16,10.4-24.2,15.3c-9.8,5.8-19.7,11.3-29.6,16.9c0.1-1.3-0.2-3,0.5-3.8
			c4-4.8,8.1-9.6,12.5-14c1.4-1.5,3.8-2,6.7-3.4c0-1.3,0-4.1,0-7.9c2.1-0.7,5.3-1.7,9.3-3c0.1,0.1,0.9,0.8,2,1.7
			c1.8-2,3.6-3.9,5.7-6.2c-1-0.9-1.9-1.7-2.9-2.4c17.8-11.5,35.5-23.1,53.3-34.6c0.1,1.9,1,4.2,0.2,5.7c-2.3,4-4.8,8-8,11.3
			C1106,641.4,1097.4,649.4,1088.9,657.6z"/>
		<path class="st65" d="M1073.2,718.7c27-21.9,49-48.1,64.2-79.3c6.2-12.7,9.5-26.8,14.4-40.2c0.9-2.4,2.6-4.8,4.5-6.4
			c3.3-2.7,7.1-4.8,10.6-7.2c-1.3,4.1-2.6,8.1-3.9,12.2c-7.7,17-15.3,34-23,50.9c-3.3,6-6.7,12-10,18c-5.3,7.7-10.7,15.3-16,22.9
			c-8.4,8.6-16.8,17.2-25.2,25.8c-1.3,1.3-3.1,2.2-4.7,3.3c-1.5-0.4-3-1.2-4.5-1.2C1077.5,717.6,1075.3,718.3,1073.2,718.7z"/>
		<path class="st66" d="M891.3,626.8c2.5,0.2,5,0.6,7.4,0.5c5.7,0,11.5-2.7,16.6,2.6c1.6,1.6,5.2,1.3,7.9,1.8c4.8,1,9.6,2,14.3,2.9
			c0.5,0.1,1,0.3,1.5,0.2c6.3-1.1,11.8-0.5,15.1,6.1c0.2,0.5,2.1,0.2,3.2,0.3c6.6,0.2,13.2,0.4,19.8,0.8c0.8,0,1.4,1.2,2.1,1.9
			c-16,3.6-32,7.3-48,10.9c0-1.8,0-3.5,0-5.8c-6.2-2.2-13-4.8-19.8-7.1c-0.7-0.2-1.6,0.4-2.4,0.5c-1,0.1-2.2,0.5-2.8,0.1
			c-4.3-3.1-9.5-4.8-13.3-9c-2.3-2.6-6.8-3.2-10.4-4.5c-1.3-0.5-2.8-0.7-4.2-1C882.6,627.5,886.9,627.1,891.3,626.8z"/>
		<path class="st67" d="M1163,597.8c1.3-4.1,2.6-8.1,3.9-12.2c4.5-3.9,8.9-7.8,13.4-11.6c3.2-2.7,5.2-5.8,4.8-10.2
			c0.2,0.1,0.4,0.2,0.6,0.3c0.3,20-0.8,39.9-5,59.6c-0.2-3.1-0.2-6.3-0.7-9.4c-0.2-1.5-1.3-4.1-2.2-4.2c-5.3-0.6-6-3.7-6.1-8.3
			C1171.7,596.1,1167.4,594.4,1163,597.8z"/>
		<path class="st68" d="M878.3,627.8c1.4,0.3,2.9,0.5,4.2,1c3.6,1.4,8.1,2,10.4,4.5c3.8,4.2,9,5.9,13.3,9c0.6,0.4,1.9,0,2.8-0.1
			c0.8-0.1,1.7-0.7,2.4-0.5c6.8,2.4,13.6,4.9,19.8,7.1c0,2.3,0,4,0,5.8c-12.3,0.9-24.6,1.9-36.9,2.8c0.7-0.3,1.3-0.6,2-0.8
			c4.8-0.6,9.5-1.2,14.2-1.7c0.1-0.6,0.3-1.2,0.4-1.9c-5.9,1-6.3-3.1-6.8-6.9c-2.9,1.8-5.3,3.4-8.3,5.3c0.2-3.3,0.3-5.2,0.5-7.6
			c-1.6,0.5-2.6,0.8-3.9,1.2c-0.3-2.3-0.6-4.2-1-6.7c-1.8,1.1-3.3,1.9-5,2.9c-0.4-0.9-0.7-1.7-1.1-2.4c-2.3-4.6-8.8-9.3-12.2-9.1
			c-3.2,0.2-6.3,0-9.5,0c0-0.3,0.1-0.5,0.1-0.8c3.5-0.5,7.1-0.9,10.7-1.3C875.6,627.8,876.9,627.8,878.3,627.8z"/>
		<path class="st69" d="M1073.2,718.7c2.1-0.4,4.2-1.1,6.4-1.2c1.5,0,3,0.8,4.5,1.2c-1.7,2-3.3,4-5,5.9c-4.3,3.3-8.7,6.6-13,9.9
			c-9,5.3-18,10.7-27,16c-1.3,0.3-2.6,0.7-3.9,1c-6-2-11.7-1.1-17.3,1.8c-0.8,0.4-1.9,0.1-2.9,0.1c9.3-4.7,18.6-9.2,27.8-14.3
			c5-2.8,9.6-6.4,14.4-9.6C1062.5,726,1067.9,722.4,1073.2,718.7z"/>
		<path class="st70" d="M1088.9,657.6c8.5-8.2,17.1-16.2,25.3-24.6c3.2-3.3,5.7-7.3,8-11.3c0.8-1.4-0.1-3.7-0.2-5.7
			c4.7,0,6.4,1.9,4.5,6.5c-3.3,7.9-6.9,15.9-11.4,23.1c-5.1,8.1-11.3,15.5-17,23.2c-0.3-0.4-0.9-0.9-0.8-1.1c1.6-2.7,2.3-5.3-1.3-7
			C1093.7,659.5,1091.3,658.6,1088.9,657.6z"/>
		<path class="st71" d="M1171,505.9c0.4,1,0.7,2,1.1,3c-8.1,10.6-16.2,21.2-24.3,31.9c0.9-2.5,1.3-5.3,2.8-7.4
			c2.3-3.3,5.4-6.2,8-9.3c0.5-0.6,0.3-1.7,0.6-2.5c0.4-1.2,0.8-2.5,1.5-3.5c2.5-3.6,5.1-7.1,8.2-11.5
			C1168.6,506.5,1169.8,506.2,1171,505.9z"/>
		<path class="st72" d="M829.3,490.9c-0.5,0.3-1,0.6-1.4,0.9c-0.4-1.2-0.8-2.4-1.2-3.5c-4.2,0.3-8.1,0.6-12.3,0.9
			c-0.4-0.7-1.1-1.6-1.3-2.6c-0.7-3.2-2.2-3.1-4.5-1.4c-1.6,1.2-3.2,4-5.1-0.4c-0.4-1-5.6,0-8.1,0.1c-3.3-1.8-6.9-3.8-10.3-5.6
			c-1.7,2.5-2.7,4.1-3.7,5.7c-1.3-6-2.5-12-3.8-18c0.5,0.4,1,0.8,1.9,1.5c-0.4-4.4-0.3-8.5-1.3-12.4c-0.7-3,0.4-4.3,2.7-4.5
			c0.8-0.1,1.8,2.3,2.6,3.6c0.3,0.4,0.4,0.9,0.8,1.7c5.5-0.3,11-0.7,16.5-0.7c1.2,0,2.5,1.4,3.6,2.4c2.5,2.4,5.1,4.8,7.4,7.3
			c3.1,3.4,7,3.7,11,3.7c0.6,2.2,1.2,4.3,1.7,6.4c0.3-0.1,0.5-0.1,0.8-0.2c0-0.6,0.1-1.3,0.1-2C826.7,479.5,828,485.2,829.3,490.9z"
			/>
		<path class="st73" d="M1079.1,724.7c1.7-2,3.3-4,5-5.9c1.6-1.1,3.4-2,4.7-3.3c8.5-8.5,16.8-17.2,25.2-25.8
			c0.3,3.8,0.5,7.6,1.1,11.3c0.3,1.7,1.3,4,2.6,4.7c3.8,1.9,8,3,11.9,4.8c1.3,0.6,2.8,1.8,3.3,3.1c2,5.9,0.8,11.3-3.4,16
			c-0.2,0.2,0.8,1.4,1.3,2.2c-6.9,7-13.8,14-20.7,21.1c1.9-2.8,3.8-5.5,6.4-9.3c-2.1-0.4-3.5-0.7-5.1-0.9c-4.7-0.5-9.8,0.3-13.8-1.5
			c-4-1.8-6.9-6.1-10.2-9.4c-0.3-0.3-0.3-1.3-0.1-1.9c1.3-4.5-1.3-4.6-4.6-4.4C1081.5,725.4,1080.3,724.9,1079.1,724.7z"/>
		<path class="st74" d="M1130.8,731.6c-0.5-0.7-1.5-2-1.3-2.2c4.2-4.7,5.3-10.1,3.4-16c-0.4-1.3-2-2.5-3.3-3.1
			c-3.9-1.7-8.1-2.8-11.9-4.8c-1.4-0.7-2.3-3-2.6-4.7c-0.7-3.7-0.8-7.5-1.1-11.3c5.3-7.7,10.7-15.3,16-22.9c1.5,0.7,2.9,1.4,4.4,2.1
			c1.1,2.1,2.7,3.7,4.3,5.4c0.8,0.9,2,1.8,2.2,2.9c0.5,3.9,2.1,6,6.3,5.8c3.3-0.2,4.5,1.2,2.8,4.7c-0.7,1.3-0.1,3.6,0.5,5.2
			c0.8,2.1,2.2,4,3.3,5.9c-1.8,3.3-3.6,6.6-5.3,9.9C1142.6,716.3,1136.8,723.9,1130.8,731.6z"/>
		<path class="st75" d="M1079.1,724.7c1.2,0.2,2.4,0.7,3.6,0.6c3.3-0.2,5.9-0.1,4.6,4.4c-0.2,0.6-0.2,1.6,0.1,1.9
			c3.3,3.3,6.2,7.6,10.2,9.4c4,1.8,9.2,1.1,13.8,1.5c1.5,0.2,3,0.5,5.1,0.9c-2.6,3.8-4.5,6.5-6.4,9.3c-6.7,4.8-13.3,9.5-20,14.3
			c1.2-1.7,2.4-3.4,3.7-5.3c-8.4-4.5-16.8-8.9-25.2-13.2c-2.4-1.2-4.1-2.2-3-5.6c0.8-2.5,0.3-5.5,0.3-8.3
			C1070.4,731.3,1074.7,728,1079.1,724.7z"/>
		<path class="st76" d="M1188,687.7c2-3.7,4-7.3,6-11c-0.2,1.2-0.3,2.3-0.7,4.7c4.7-1.7,8.8-3.2,13.9-5c-0.8,2.1-1.1,2.9-1.5,3.9
			c1-0.1,1.9-0.1,2.9-0.2c-0.2,1-0.3,1.7-0.5,2.8c2-0.9,3.4-1.5,4.9-2.2c-4.3,4.7-8.6,9.3-12.9,14c-4,0-8,0-12.1,0
			c0.3,0.5,0.7,1,1,1.5c-1.6,1-3.1,2-4.8,3.1c0.9,0.8,1.5,1.3,2.7,2.4c-2.2,0-3.5,0-4.8,0C1184,697,1186,692.4,1188,687.7z"/>
		<path class="st77" d="M1182,701.7c1.3,0,2.6,0,4.8,0c-1.2-1-1.8-1.6-2.7-2.4c1.7-1.1,3.3-2.1,4.8-3.1c-0.3-0.5-0.7-1-1-1.5
			c4,0,8,0,12.1,0c-8.7,8.7-17.3,17.3-26,26c-0.9-0.6-1.9-1.2-3.1-2C1174.6,712.8,1178.3,707.3,1182,701.7z"/>
		<path class="st78" d="M1180.8,623.7c4.3-19.6,5.3-39.5,5-59.6c0.4-0.2,0.8-0.4,1.1-0.6c-0.2,11.6,0.3,23.2-0.8,34.7
			c-1.3,13.6-4,27-6.1,40.5c-1.7,5.2-3.3,10.5-5,15.7c-0.5,1.5-1.3,2.9-2,4.3c0-0.7-0.1-1.4-0.1-2.2c0.4-1.6,0.8-3.2,1.2-4.8
			C1176.3,642.4,1178.6,633,1180.8,623.7z"/>
		<path class="st79" d="M1172.9,656.6c0,0.7,0.1,1.4,0.1,2.2c-1.7,5.4-2.9,11-5.3,16.2c-4.8,10.2-10.1,20.1-15.4,30.1
			c-0.8,1.5-2.5,2.4-3.7,3.6c1.8-3.3,3.6-6.6,5.3-9.9c4.3-9,8.7-18,13-27C1168.9,666.6,1170.9,661.6,1172.9,656.6z"/>
		<path class="st42" d="M935.2,720.6c0.4-0.5,0.7-1,1-1.4c-5,0-10,0-14.9,0c2-3,4-6.2,6.8-10.4c0.4,3.3,0.7,5.8,1.1,9
			c2-2.9,3.8-5.4,6.4-9.2c1.4,3.5,2.4,6,3.4,8.7c1.1-0.2,2.5-0.3,4.4-0.6c-0.1,1.2-0.2,2.1-0.2,3
			C940.5,719.9,937.9,720.2,935.2,720.6z"/>
		<path class="st80" d="M771.4,611.8c-1-2.7-2-5.4-2.9-8.1c12.2,8.3,25.6,14.2,39.6,18.8c4,1.3,8.2,2.2,12.3,3.2
			c1.3,0.9,2.7,1.9,4.2,3c-1.5,0.3-2.8,0.6-4,0.8c0,2.2,0,4.1,0,6c1.7-3.7,3.5-6.3,7.1-6.1c0,2.6,0,4.4,0,6.1
			c-1.2,0.4-3,1.1-4.9,1.8c1,1.5,1.6,2.6,2.5,4c4.4-5.4,9.3-1.8,14.4,0c0.8-1.6,1.5-3,2.7-5.6c-0.3,3.6-0.4,6-0.7,9.2
			c2.3-1.2,4.3-2.3,6.3-3.3c-0.5,5.5-0.5,5.5,4,7.3c0.2-1.5,0.4-3,0.8-5.4c0.6,4.1,1,7.2,1.5,10.3c-9.3-2-18.7-3.9-28-6
			c-20.7-4.6-37.3-15.7-50.8-31.8C774.2,614.5,772.7,613.2,771.4,611.8z"/>
		<path class="st81" d="M854.3,653.7c-0.4-3.1-0.9-6.3-1.5-10.3c-0.3,2.4-0.6,3.9-0.8,5.4c-4.5-1.8-4.5-1.8-4-7.3
			c-2,1.1-4,2.1-6.3,3.3c0.2-3.2,0.4-5.6,0.7-9.2c-1.2,2.6-1.9,4-2.7,5.6c-5.1-1.8-10-5.3-14.4,0c-0.9-1.4-1.6-2.5-2.5-4
			c1.9-0.7,3.7-1.3,4.9-1.8c0-1.7,0-3.5,0-6.1c-3.6-0.2-5.4,2.4-7.1,6.1c0-1.9,0-3.8,0-6c1.2-0.2,2.5-0.5,4-0.8
			c-1.6-1.1-2.9-2.1-4.2-3c7.3,0.7,14.6,1.4,22,2.1c0.3,1.9-0.3,4.6,3.5,2.8c1.3-0.6,3.4,0.3,6.2,0.7c-0.3,0.2,0.4-0.4,1-1
			c1.6,1.5,3.9,2.6,4.3,4.2c1.7,6.1,5.8,5.7,10.5,4.6c1.1-0.3,2.4,0.1,3.6,0.1c-0.1,1.1,0.2,2.7-0.3,3.2c-4.2,3.5-0.4,4.6,1.8,5.9
			c1.5,1,3.4,1.4,5,2.1c0.1-0.7,0.2-1.7,0.4-2.6c0.3,0,0.6-0.1,1-0.1c0.7,2.1,1.5,4.2,2.2,6.2c-2.3,0.7-4.2,1.2-6.2,1.8
			C868.3,655,861.3,654.4,854.3,653.7z"/>
		<path class="st82" d="M875.3,655.7c2-0.5,3.9-1.1,6.2-1.8c-0.7-2.1-1.5-4.2-2.2-6.2c-0.3,0-0.6,0.1-1,0.1c-0.1,1-0.3,1.9-0.4,2.6
			c-1.7-0.7-3.5-1.1-5-2.1c-2.2-1.3-5.9-2.4-1.8-5.9c0.6-0.5,0.2-2.1,0.3-3.2c-1.2-0.1-2.5-0.4-3.6-0.1c-4.7,1-8.8,1.5-10.5-4.6
			c-0.5-1.6-2.7-2.7-4.3-4.2c-0.6,0.6-1.3,1.2-1,1c-2.8-0.4-4.9-1.4-6.2-0.7c-3.8,1.8-3.1-1-3.5-2.8c10.7,0,21.3,0.1,31.9,0.1
			c-3.5,0.5-7.1,0.9-10.7,1.3c0,0.3-0.1,0.5-0.1,0.8c3.2,0,6.4,0.2,9.5,0c3.3-0.2,9.8,4.5,12.2,9.1c0.3,0.7,0.7,1.4,1.1,2.4
			c1.7-1,3.2-1.9,5-2.9c0.4,2.4,0.7,4.4,1,6.7c1.3-0.4,2.3-0.7,3.9-1.2c-0.1,2.4-0.3,4.3-0.5,7.6c3.1-2,5.5-3.5,8.3-5.3
			c0.5,3.8,0.9,7.9,6.8,6.9c-0.1,0.6-0.3,1.2-0.4,1.9c-4.8,0.6-9.5,1.2-14.2,1.7c-5.2-0.3-10.3-0.7-15.5-1
			C878.9,655.7,877.1,655.7,875.3,655.7z"/>
		<path class="st83" d="M1015,753.6c1,0,2.1,0.3,2.9-0.1c5.6-2.9,11.3-3.8,17.3-1.8c-6,3-12.1,5.9-18.1,8.9c-5.3,1.7-10.6,3.3-16,5
			c-4.3,1-8.6,2-13,3c-2.8-1.6-5.3-4.2-9.1-3.1C991,761.6,1003,757.6,1015,753.6z"/>
		<path class="st84" d="M1212.9,680.7c-1.5,0.7-2.9,1.3-4.9,2.2c0.2-1,0.3-1.8,0.5-2.8c-1,0.1-1.8,0.1-2.9,0.2
			c0.4-1,0.7-1.8,1.5-3.9c-5.1,1.8-9.2,3.3-13.9,5c0.4-2.4,0.5-3.6,0.7-4.7c2.7-7.7,5.3-15.3,8-23c2.3,3.1,4.7,6.2,7.2,9.6
			c1.3-2.6,2.1-4.3,3-5.9c0.2,0.1,0.5,0.1,0.8,0.2c0,1.3,0,2.7,0,4.6c4.5-5.8,7.4,0.6,11.1,0.5
			C1220.2,668.7,1216.6,674.7,1212.9,680.7z"/>
		<path class="st85" d="M1067.1,463.9c-0.4-3.6-0.7-7.1-1.1-10.7c-0.5-3.9-2.7-4.8-6.8-2.5c-1-1.9-2-3.8-3.6-6.7
			c-2.7,3.7-5,6.8-7.8,10.5c-1.2-1-2.6-2.3-4.7-4.2c-1.5,0.6-3.7,1.4-5.8,2.3c0.1,0.4,0.3,0.7,0.4,1.1c-3.2,0.3-6.5,0.5-9.7,0.8
			c-0.2-0.3-0.5-0.6-0.8-0.9c2-1.6,3.8-3.7,6.1-4.5c3.6-1.3,6.1-3.2,6.8-7.1c7.7-5,15.4-9.9,23-14.9c9.1-4.9,18-10.2,27.4-14.7
			c16.3-7.8,32.7-15.6,49.4-22.3c19.6-7.8,39.9-13,61-15.3c13.1,0,26.1-0.5,38.8,4c9.2,3.3,17.7,7.3,24.2,14.9
			c2.4,3.9,4.9,7.7,7.1,11.7c1,1.7,1.4,3.8,2,5.7c-0.3,0.4-0.7,0.8-1.1,1.2c-2.3-0.9-4.8-1.6-6.9-2.9c-9.1-5.7-19.2-7.8-29.7-8.5
			c-30-1.8-57.4,7.7-84.3,19.5c-13.8,6-27.3,12.8-40.8,19.4c-2,1-3.5,2.8-5.2,4.2c-2.2,1.3-4.4,2.6-6.7,4c-1.9,0.5-3.9,0.8-5.5,1.7
			C1084.2,454.4,1075.7,459.2,1067.1,463.9z"/>
		<path class="st86" d="M1067.1,463.9c8.6-4.7,17.1-9.5,25.8-14.2c1.7-0.9,3.7-1.1,5.5-1.7c-10.1,6-20.2,11.9-30.3,17.9
			C1067.8,465.3,1067.4,464.6,1067.1,463.9z"/>
		<path class="st87" d="M1153.9,504.8c2.4,3.9-0.8,7.1-1.9,10.3c-1.8,5.2-4.5,10-6.9,14.9c-1.8,3.7-3.4,7.5-5.8,10.7
			c-4.2,5.6-8.2,11.8-13.7,15.9c-5.9,4.5-13.4,6.9-20.3,10c-5.9,2.6-12.1,4.6-17.9,7.5c-2.1,1-3.7,3.5-4.8,5.8
			c-1.7,3.4-6.9,7-10.2,5.5c-3.7-1.7-5.8-0.1-7.7,2.3c-3.6,4.6-8.6,4.3-13.7,4.9c-5.3,0.6-10.4,2.7-15.7,4c-7.4,1.8-14.7,4-22.2,5
			c-3,0.4-6.4-1.6-9.5-2.7c-1.9-0.7-3.7-1.9-5.5-2.9c16.7-8.5,33.4-17.1,50.1-25.6c1.6-0.8,3.2-1.6,4.8-2.4c1.4,0.3,2.8,0.5,4.7,0.9
			c-1.3,1.6-2.5,3.1-3.7,4.6c4.1,3.5,6.8,3.4,8.1-0.1c2.4-6.9,2.4-6.7,10-5.6c3.7,0.5,7.6,0.8,9.7-3.7c0.5-1,3-2.1,4.1-1.7
			c4.5,1.6,7.7-0.9,11-2.8c3.4-2,6.4-4.8,10-6.3c2.9-1.2,6.4-1,9.5-1.4c0.3-1.8,0.4-3.1,0.7-5c3.4,2.5,5,1.6,6.1-1.8
			c0.4-1.4,1.9-3.1,3.2-3.5c5.2-1.9,6.2-5.8,5.9-9.5c2.2-1.9,4.4-2.9,5.3-4.5c1.6-3.2,2.4-6.6,6.3-8.2c1.1-0.5,1.4-2.8,2.3-4.8
			c-3.7,0.3-6.5,0.5-9.3,0.7C1142.6,511.5,1148.3,508.1,1153.9,504.8z"/>
		<path class="st88" d="M1136.9,514.8c2.8-0.2,5.6-0.4,9.3-0.7c-0.9,2-1.2,4.4-2.3,4.8c-3.9,1.6-4.7,5-6.3,8.2
			c-0.8,1.7-3,2.7-5.3,4.5c0.3,3.6-0.6,7.6-5.9,9.5c-1.4,0.5-2.8,2.1-3.2,3.5c-1.1,3.4-2.7,4.2-6.1,1.8c-0.3,1.9-0.5,3.2-0.7,5
			c-3.1,0.4-6.6,0.2-9.5,1.4c-3.6,1.5-6.6,4.3-10,6.3c-3.3,1.9-6.5,4.5-11,2.8c-1.1-0.4-3.6,0.7-4.1,1.7c-2.1,4.5-6,4.3-9.7,3.7
			c-7.6-1.1-7.6-1.3-10,5.6c-1.2,3.5-4,3.6-8.1,0.1c1.2-1.5,2.4-2.9,3.7-4.6c-1.8-0.3-3.2-0.6-4.7-0.9c19-12.4,37.9-24.8,56.9-37.2
			C1119,525.4,1128,520.1,1136.9,514.8z"/>
		<path class="st89" d="M1011,302c-0.5,1.5-0.9,2.9-1.4,4.3c0.1,0,0.1,0.1,0.2,0.1c-0.8,3.1-1.5,6.2-2.5,9.2
			c-1.3,3.4-3.8,6.8-0.1,8.2c1.1,5.5,2,9.8,2.9,14.2c-6.7,4-13.3,8-20,12c-3.9-3.8-9.5-5.8-11.5-11.6c-0.3-1-2-1.5-3-2.3
			c-1.2-1-2.5-2.1-3.7-3.1C985,322.7,998,312.3,1011,302z"/>
		<path class="st90" d="M950.3,357.1c2.9-3.4,5.7-6.8,8.6-10.1c4,0.2,6.5,2.5,7.1,6.2c0.7,4.2,0.8,8.6,1.1,12.9
			c-9,7.4-17.9,14.7-26.9,22.1c-4.2-3.6-1.1-8.3,0.5-10.5c2.5-3.6,2.2-7.5,4.2-11C950.2,365.5,948.9,360.5,950.3,357.1z"/>
		<path class="st91" d="M967.2,366c-0.3-4.3-0.3-8.7-1.1-12.9c-0.6-3.7-3.2-6-7.1-6.2c4.4-4.6,8.7-9.3,13.1-14
			c1.2,1,2.4,2.1,3.7,3.1c1,0.8,2.6,1.3,3,2.3c2,5.8,7.5,7.9,11.5,11.6C982.5,355.4,974.8,360.7,967.2,366z"/>
		<path class="st92" d="M950.3,357.1c-1.4,3.4-0.2,8.5-5.3,9.5c-2,3.5-1.7,7.5-4.2,11c-1.5,2.2-4.7,6.9-0.5,10.5
			c-7.7,7-15.3,13.9-23,20.9C926.3,390.4,936.8,372.8,950.3,357.1z"/>
		<path class="st2" d="M1016.6,337.9c-0.3,1.6-0.1,4.1-1.1,4.7c-1.2,0.8-3.5,0.2-5.2,0.2c-0.1-0.5-0.1-1-0.2-1.5
			c1.8-1.3,3.5-2.6,5.2-3.9C1015.7,337.6,1016.2,337.8,1016.6,337.9z"/>
		<path class="st93" d="M854.4,468.9c-4.3-23.7-4.2-47.5-0.2-71.2c0.1,1.1,0.2,2.2,0.4,4.3c3.2-14.5,6.1-28.1,9.2-42.4
			c3.2,3.8,5.8,6.2,7.4,9.1c1,1.8,0.7,4.4,0.9,6.6c0.2,2.1-0.2,4.4,0.5,6.2c0.5,1.1,3.4,2.5,3.9,2.1c3.7-2.8,5.7-0.8,7.6,2.3
			c3.2-2.4,6.2-4.7,9.2-6.9c-3.3,10-6.7,20-10,30c-3.1-0.2-4,1.4-4.1,4.2c0,1.5-0.8,3.1-0.8,3.4c-3.7,0-6.1,0.1-8.5,0
			c-4-0.2-9.4,3.7-11.2-3.6c-0.2-0.6-1.8-1.5-2.3-1.3c-0.8,0.4-1.8,1.5-1.9,2.4c-0.5,4.5-1.1,9-1,13.5c0.1,9.4,0.6,18.8,0.9,28.2
			C854.3,460.2,854.4,464.6,854.4,468.9z"/>
		<path class="st94" d="M854.3,455.9c-0.3-9.4-0.8-18.8-0.9-28.2c0-4.5,0.5-9,1-13.5c0.1-0.9,1.1-2,1.9-2.4c0.5-0.2,2.1,0.6,2.3,1.3
			c1.9,7.3,7.2,3.4,11.2,3.6c2.4,0.1,4.9,0,8.5,0c0.1-0.3,0.8-1.9,0.8-3.4c0-2.9,1-4.5,4.1-4.2c-1.8,8.3-3.6,16.5-5.4,24.8
			c-0.5,2.4-1,4.8-1.5,7.2c-2.1,4.1-4.2,8.3-6.4,12.4c-0.5,0.8-1.8,1.4-2.8,1.5C862.8,455.3,858.5,455.6,854.3,455.9z"/>
		<path class="st95" d="M854.3,455.9c4.2-0.3,8.5-0.6,12.7-1.1c1-0.1,2.3-0.7,2.8-1.5c2.3-4,4.3-8.2,6.4-12.4
			c-0.9,8.9-1.9,17.8-2.7,26.7c-0.2,1.7,0.4,3.5,0.7,5.2c-0.3,0.7-0.6,1.3-1,2c-2.5-2-9.9-1.7-12.7,0.5c-3,2.3-1.6,5.1-1,8.1
			c0.4,2-0.6,4.2-1,6.3c-0.1-1-0.3-2-0.4-3c-0.6-2.1-1.1-4.1-1.7-6.2c-0.7-4-1.3-7.9-2-11.8C854.4,464.6,854.3,460.2,854.3,455.9z"
			/>
		<path class="st96" d="M858.5,489.9c0.4-2.1,1.4-4.4,1-6.3c-0.6-3-1.9-5.8,1-8.1c2.9-2.3,10.3-2.5,12.7-0.5c0,1.7-0.2,3.3,0,5
			c0.7,5.6-0.5,9.4-7,10.7c-5,1-1.7,5.8-2.7,8.7c-0.4,1.1-0.2,2.4-0.3,3.5C861.7,498.5,860.1,494.2,858.5,489.9z"/>
		<path class="st97" d="M1172.9,656.6c-2,5-4,10-6.1,15.1c-3.3-3.3-1.3-6.3,0.8-9.4c-4-1.3-7.7-2.2-11.1-3.7
			c-2.6-1.1-6.3-2.5-6.9-4.6c-1.7-5.5-5.2-5.7-9.6-5.3c7.7-17,15.3-34,23-50.9c4.5-3.4,8.7-1.7,8.8,4c0.1,4.6,0.8,7.7,6.1,8.3
			c0.9,0.1,1.9,2.7,2.2,4.2c0.5,3.1,0.5,6.3,0.7,9.4c-2.2,9.4-4.5,18.7-6.7,28.1C1173.7,653.4,1173.3,655,1172.9,656.6z"/>
		<path class="st98" d="M1140,648.7c4.4-0.4,7.9-0.2,9.6,5.3c0.6,2,4.3,3.5,6.9,4.6c3.4,1.5,7.2,2.4,11.1,3.7
			c-2.1,3-4.1,6.1-0.8,9.4c-4.3,9-8.7,18-13,27c-1.2-2-2.6-3.8-3.3-5.9c-0.6-1.6-1.2-3.9-0.5-5.2c1.8-3.5,0.6-4.9-2.8-4.7
			c-4.3,0.2-5.9-1.9-6.3-5.8c-0.1-1-1.3-2-2.2-2.9c-1.6-1.7-3.2-3.3-4.3-5.4c-1.5-0.7-2.9-1.4-4.4-2.1
			C1133.3,660.7,1136.7,654.7,1140,648.7z"/>
	</g>
</g>
</svg>
